<?xml version="1.0" standalone="no"?>
<!DOCTYPE svg PUBLIC "-//W3C//DTD SVG 1.1//EN" "http://www.w3.org/Graphics/SVG/1.1/DTD/svg11.dtd">
<svg xmlns="http://www.w3.org/2000/svg"><metadata>This SVG WebFont was generated by YouWorkForThem.
Â© 2015 Connary Fagen</metadata><defs><font horiz-adv-x="1155" id="ywftsvg"><font-face ascent="1638" bbox="-338 -618 2085 1905" cap-height="1434" descent="-410" font-family="" font-stretch="normal" font-weight="500" panose-1="0 0 6 0 0 0 0 0 0 0" underline-position="0" underline-thickness="0" unicode-range="U+0020-FB02" units-per-em="2048" x-height="1065"/><missing-glyph d="M856 1638v-2089h-661v2089h661zM696 1499h-346v-69h137v-78h-139v-68h348v68h-139v78h139v69zM557 1229h-209v-217h348v71h-139v146zM487 1157v-74h-69v74h69zM696 954h-348v-67h139v-78h-139v-70h209v148h139v67zM696 829h-69v-137h-279v-71h348v208zM696 575h-209v-116 h70v47h70v-98h-209v167h-70v-235h348v235zM696 213h-348v-236h348v236zM627 145v-98h-209v98h209zM696 -70h-348v-69h148l-148 -99v-69h348v69h-213l146 99h67v69z" horiz-adv-x="1044"/><glyph d="M188 1169q0 88 24 146.5t67 86.5t88 39t104 11q68 0 152 -18v-125q-82 12 -129 12q-78 0 -113 -34t-35 -120v-102h262v-131h-262v-934h-158v934h-151v131h151v104zM786 1434h158v-154h-158v154zM786 0v1065h158v-1065h-158z" glyph-name="uniFB01" horiz-adv-x="1062" unicode="fi"/><glyph d="M188 1169q0 88 24 146.5t67 86.5t88 39t104 11q68 0 152 -18v-125q-82 12 -129 12q-78 0 -113 -34t-35 -120v-102h262v-131h-262v-934h-158v934h-151v131h151v104zM807 1434h158v-1434h-158v1434z" glyph-name="uniFB02" horiz-adv-x="1083" unicode="fl"/><glyph d="M856 1638v-2089h-661v2089h661zM696 1499h-346v-69h137v-78h-139v-68h348v68h-139v78h139v69zM557 1229h-209v-217h348v71h-139v146zM487 1157v-74h-69v74h69zM696 954h-348v-67h139v-78h-139v-70h209v148h139v67zM696 829h-69v-137h-279v-71h348v208zM696 575h-209v-116 h70v47h70v-98h-209v167h-70v-235h348v235zM696 213h-348v-236h348v236zM627 145v-98h-209v98h209zM696 -70h-348v-69h148l-148 -99v-69h348v69h-213l146 99h67v69z" glyph-name=".notdef" horiz-adv-x="1044"/><glyph glyph-name="glyph1" horiz-adv-x="0"/><glyph glyph-name="glyph2" horiz-adv-x="681"/><glyph glyph-name="space" horiz-adv-x="600" unicode=" "/><glyph d="M322 397h-175v1037h175v-1037zM156 205h184v-205h-184v205z" glyph-name="exclam" horiz-adv-x="468" unicode="!"/><glyph d="M123 1044v390h158v-390h-158zM438 1044v390h158v-390h-158z" glyph-name="quotedbl" horiz-adv-x="677" unicode="&quot;"/><glyph d="M1118 915h-223l-39 -397h211v-125h-223l-41 -393h-121l39 393h-301l-39 -393h-121l39 393h-207v125h219l41 397h-209v125h222l38 394h121l-39 -394h301l39 394h121l-39 -394h211v-125zM733 518l41 397h-301l-39 -397h299z" glyph-name="numbersign" horiz-adv-x="1210" unicode="#"/><glyph d="M1118 381q0 -180 -125 -283.5t-346 -113.5v-168h-98v170q-211 14 -327 123.5t-134 293.5h166q39 -250 295 -272v551l-60 12q-367 82 -366 381q0 160 110.5 261.5t315.5 111.5v170h98v-170q381 -25 424 -365h-164q-31 201 -260 220v-498l55 -12q207 -45 311.5 -140.5 t104.5 -271.5zM520 834l29 -7v476q-135 -8 -197.5 -72t-62.5 -158q0 -190 231 -239zM647 131q305 14 305 250q0 119 -69.5 181.5t-194.5 88.5l-41 8v-528z" glyph-name="dollar" horiz-adv-x="1193" unicode="$"/><glyph d="M354.5 821q-114.5 0 -188.5 83t-74 231q0 145 74 227t188.5 82t188 -82t73.5 -227q0 -147 -73.5 -230.5t-188 -83.5zM260 0l842 1436l121 -2l-840 -1434h-123zM356 928q145 0 146 207q0 201 -146 200q-147 0 -147 -200q0 -207 147 -207zM1126 -10q-115 0 -187.5 83 t-72.5 230q0 145 74 227t188.5 82t188.5 -81.5t74 -227.5q0 -147 -74 -230t-191 -83zM1130 98q145 0 146 207q0 201 -146 201q-147 0 -147 -201q0 -207 147 -207z" glyph-name="percent" horiz-adv-x="1482" unicode="%"/><glyph d="M1305 78l-109 -96l-154 168q-174 -168 -440 -168q-213 0 -346 115.5t-133 285.5q0 74 22.5 133t69.5 106.5t94 79t121 72.5l27 14q-182 203 -183 361q0 139 95.5 228t269.5 89q166 0 259 -89t93 -228q0 -121 -74.5 -215t-232.5 -180l-2 -2l350 -381q78 123 121 309h150 q-59 -258 -168 -418zM414 1151q0 -72 42 -137.5t130 -157.5l28 16q119 61 179.5 127t60.5 152q0 88 -57.5 141.5t-157.5 53.5q-104 0 -164.5 -53.5t-60.5 -141.5zM610 129q195 0 332 129l-389 426l-55 -31q-205 -106 -205 -262q0 -113 87 -187.5t230 -74.5z" glyph-name="ampersand" horiz-adv-x="1372" unicode="&amp;"/><glyph d="M102 1047v387h158v-387h-158z" glyph-name="quotesingle" horiz-adv-x="362" unicode="'"/><glyph d="M309 1526h148q-207 -375 -207 -871q0 -524 207 -921h-148q-217 387 -217 921q0 509 217 871z" glyph-name="parenleft" horiz-adv-x="538" unicode="("/><glyph d="M240 1526q217 -362 217 -871q0 -535 -217 -921h-148q207 397 207 921q0 496 -207 871h148z" glyph-name="parenright" horiz-adv-x="538" unicode=")"/><glyph d="M803 1157l-223 -59l145 -195l-115 -74l-131 191l-133 -191l-115 74l148 195l-225 59l32 133l230 -69l-6 239h135l-4 -239l229 69zM516 1122l-10 41h-55l-11 -41l39 -32z" glyph-name="asterisk" horiz-adv-x="956" unicode="*"/><glyph d="M963 647v-139h-363v-363h-147v363h-361v139h361v363h147v-363h363z" glyph-name="plus" horiz-adv-x="1054" unicode="+"/><glyph d="M104 -369v54q39 23 52.5 61.5t13.5 118.5v61h-68v199h207v-254q0 -228 -205 -240z" glyph-name="comma" horiz-adv-x="411" unicode=","/><glyph d="M92 631h694v-115h-694v115z" glyph-name="hyphen" horiz-adv-x="878" unicode="-"/><glyph d="M102 205h185v-205h-185v205z" glyph-name="period" horiz-adv-x="389" unicode="."/><glyph d="M795 1434l-557 -1434h-156l555 1434h158z" glyph-name="slash" horiz-adv-x="876" unicode="/"/><glyph d="M633 1448q244 0 400.5 -184.5t156.5 -520.5v-53q0 -336 -156.5 -520t-400.5 -184q-242 0 -398.5 184t-156.5 520v53q0 336 156.5 520.5t398.5 184.5zM1032 743q0 260 -106.5 414t-293 154t-291.5 -153.5t-105 -414.5v-53q0 -260 105 -412.5t291.5 -152.5t293 152.5 t106.5 412.5v53z" glyph-name="zero" horiz-adv-x="1267" unicode="0"/><glyph d="M489 1434v-1434h-157v1219q-39 -47 -106.5 -80t-143.5 -35v133q90 8 158.5 63.5t91.5 133.5h157z" glyph-name="one" horiz-adv-x="673" unicode="1"/><glyph d="M92 0v47q0 199 91 336t317 279q188 117 241 167q96 92 97 215q0 125 -81 195t-212 70t-214 -77t-83 -228v-35h-154v35q0 203 119 323.5t332 120.5q211 0 331.5 -114.5t120.5 -289.5q0 -84 -27.5 -152.5t-93 -129t-121 -99t-163.5 -102.5q-164 -100 -245 -197.5 t-81 -218.5v-14h748v-131h-922z" glyph-name="two" horiz-adv-x="1105" unicode="2"/><glyph d="M768 766q135 -18 235.5 -110.5t100.5 -245.5q0 -195 -137.5 -312.5t-372.5 -117.5q-229 0 -364.5 125.5t-137.5 322.5h156q2 -141 98 -225t250 -84q156 0 253 75.5t97 217t-99 214t-288 72.5h-49v119h49q168 0 239.5 74t71.5 182q0 111 -77.5 174.5t-206.5 63.5 q-133 0 -213 -75t-80 -222h-154q0 205 120 319.5t327 114.5q203 0 321.5 -105.5t118.5 -263.5q0 -117 -68.5 -198.5t-189.5 -114.5z" glyph-name="three" horiz-adv-x="1196" unicode="3"/><glyph d="M1067 383h-164v-383h-158v383h-663v131l663 920h158v-920h164v-131zM745 514v717l-509 -717h509z" glyph-name="four" horiz-adv-x="1138" unicode="4"/><glyph d="M639 975q199 0 334 -134t135 -362q0 -231 -135 -365t-371 -134q-227 0 -361.5 126.5t-138.5 325.5h154q4 -141 101.5 -227t244.5 -86q154 0 251 93t97 267q0 172 -100 266.5t-240 94.5q-195 0 -315 -150h-150l111 744h731v-140h-625l-71 -473q49 63 141 108.5t207 45.5z " glyph-name="five" horiz-adv-x="1200" unicode="5"/><glyph d="M627 965q207 0 346 -132.5t139 -357.5q0 -231 -140.5 -363t-355.5 -132q-244 0 -379 182t-135 516q0 154 26 284t84 243.5t164.5 178t254.5 64.5q205 0 320.5 -109.5t125.5 -255.5h-153q-16 100 -89 164t-204 64q-111 0 -190 -51.5t-117.5 -140.5t-54 -186t-13.5 -214 q35 109 135.5 177.5t235.5 68.5zM616 119q154 0 248 92t94 264q0 166 -95 262.5t-247 96.5q-143 0 -238 -95.5t-95 -259.5q0 -158 94 -259t239 -101z" glyph-name="six" horiz-adv-x="1204" unicode="6"/><glyph d="M924 1434v-138q-410 -629 -504 -1296h-162q104 680 518 1296h-704v138h852z" glyph-name="seven" horiz-adv-x="995" unicode="7"/><glyph d="M823 803q131 -49 206 -146.5t75 -236.5q0 -203 -142.5 -318.5t-363.5 -115.5q-219 0 -362.5 115.5t-143.5 318.5q0 139 76 236.5t207 146.5q-90 45 -143.5 123t-53.5 174q0 150 111.5 249t308.5 99t308.5 -99.5t111.5 -248.5q0 -96 -52.5 -175t-142.5 -122zM598 1319 q-133 0 -203.5 -63.5t-70.5 -165.5q0 -109 73.5 -176.5t200.5 -67.5q129 0 202.5 67.5t73.5 176.5q0 102 -71.5 165.5t-204.5 63.5zM598 125q156 0 251 83t95 220q0 143 -95 226t-251 83t-251 -83t-95 -226q0 -137 95 -220t251 -83z" glyph-name="eight" horiz-adv-x="1196" unicode="8"/><glyph d="M578 467q-207 0 -346.5 132t-139.5 357q0 231 140.5 363.5t355.5 132.5q244 0 379 -182.5t135 -515.5q0 -154 -25.5 -284t-84 -243.5t-165 -178t-254.5 -64.5q-205 0 -320.5 109.5t-125.5 254.5h154q16 -100 88.5 -162.5t203.5 -62.5q381 0 377 590q-37 -109 -137 -177.5 t-235 -68.5zM588 1315q-152 0 -247 -93.5t-95 -265.5q0 -166 96 -261t246 -95q145 0 239.5 94t94.5 258q0 158 -94.5 260.5t-239.5 102.5z" glyph-name="nine" horiz-adv-x="1204" unicode="9"/><glyph d="M113 1079h184v-205h-184v205zM113 205h184v-205h-184v205z" glyph-name="colon" horiz-adv-x="405" unicode=":"/><glyph d="M174 1135h184v-205h-184v205zM66 -369v54q39 23 52 61.5t13 118.5v61h-68v199h207v-254q1 -228 -204 -240z" glyph-name="semicolon" horiz-adv-x="487" unicode=";"/><glyph d="M946 154v-154l-854 418v149l854 418v-154l-715 -339z" glyph-name="less" horiz-adv-x="1038" unicode="&lt;"/><glyph d="M92 795h752v-115h-752v115zM92 467h752v-115h-752v115z" glyph-name="equal" horiz-adv-x="935" unicode="="/><glyph d="M92 154l715 338l-715 339v154l854 -418v-149l-854 -418v154z" glyph-name="greater" horiz-adv-x="1038" unicode=">"/><glyph d="M539 1448q195 0 316.5 -102.5t121.5 -286.5q0 -90 -36 -155.5t-87 -105.5t-103.5 -79t-88 -97.5t-35.5 -136.5v-88h-166v88q0 80 26.5 144.5t66.5 101.5t86 75t86 67.5t66.5 77.5t26.5 108q0 119 -73.5 185.5t-206.5 66.5t-211 -83t-78 -237h-158q-2 219 122 338t325 119 zM467 205h184v-205h-184v205z" glyph-name="question" horiz-adv-x="1069" unicode="?"/><glyph d="M1249 174q-184 -188 -475 -188q-281 0 -491.5 206.5t-210.5 518.5q0 319 211 528t491 209q283 0 493 -209t210 -524q0 -178 -80 -276.5t-193 -98.5q-82 0 -135 52t-70 138q-31 -92 -102.5 -143t-161.5 -51q-127 0 -223 95t-96 280q0 174 97 267t220 93q88 0 160 -58.5 t72 -138.5v181h120v-445q0 -158 125 -157q156 0 156 262q0 270 -173 444t-419 174q-238 0 -414 -176t-176 -446q0 -260 178.5 -436.5t411.5 -176.5q197 0 344 117zM745.5 455q88.5 0 147.5 68.5t59 187.5q0 111 -58 175t-149 64q-88 0 -148 -62.5t-60 -176.5 q0 -123 60 -189.5t148.5 -66.5z" glyph-name="at" horiz-adv-x="1548" unicode="@"/><glyph d="M1190 0l-146 371h-663l-148 -371h-180l586 1434h145l588 -1434h-182zM432 500h561l-280 714z" glyph-name="A" horiz-adv-x="1423" unicode="A"/><glyph d="M844 784q145 -41 224 -138t79 -224q0 -422 -518 -422h-510v1434h502q213 0 325.5 -96.5t112.5 -258.5q0 -106 -56.5 -184t-158.5 -111zM285 1288v-450h360q121 0 183.5 61.5t62.5 171.5q0 217 -264 217h-342zM629 145q348 0 348 277q0 127 -86 206t-260 79h-346v-562h344 z" glyph-name="B" horiz-adv-x="1234" unicode="B"/><glyph d="M702 135q295 0 373 219h164q-37 -180 -180.5 -275t-358.5 -95q-285 0 -453.5 185t-168.5 547.5t169 548t453 185.5q213 0 355.5 -95t179.5 -274h-164q-78 217 -369 217q-213 0 -332.5 -143t-119.5 -438t119.5 -438.5t332.5 -143.5z" glyph-name="C" horiz-adv-x="1306" unicode="C"/><glyph d="M569 1434q332 0 506 -186.5t174 -530.5t-174 -530.5t-506 -186.5h-450v1434h450zM555 152q268 0 394 139t126 426t-126 426t-394 139h-270v-1130h270z" glyph-name="D" horiz-adv-x="1347" unicode="D"/><glyph d="M285 152h759v-152h-925v1434h905v-152h-739v-473h616v-143h-616v-514z" glyph-name="E" horiz-adv-x="1120" unicode="E"/><glyph d="M1012 1282h-727v-498h592v-143h-592v-641h-166v1434h893v-152z" glyph-name="F" horiz-adv-x="1079" unicode="F"/><glyph d="M1296 721q18 -377 -129 -557t-465 -180q-289 0 -456.5 184t-167.5 549q0 367 168 550t456 183q209 0 351.5 -91t181.5 -253h-158q-90 193 -375 192q-215 0 -333.5 -143t-118.5 -438t118.5 -438.5t333.5 -143.5q221 0 328 106.5t115 344.5h-330v135h455h26z" glyph-name="G" horiz-adv-x="1366" unicode="G"/><glyph d="M1042 1434h168v-1434h-168v633h-757v-633h-166v1434h166v-664h757v664z" glyph-name="H" horiz-adv-x="1329" unicode="H"/><glyph d="M285 0h-166v1434h166v-1434z" glyph-name="I" horiz-adv-x="403" unicode="I"/><glyph d="M172 260q109 -131 289 -131q147 0 229 95t82 339v871h168v-891q0 -289 -134 -423t-345 -134q-248 0 -393 168z" glyph-name="J" horiz-adv-x="1058" unicode="J"/><glyph d="M1096 0l-564 649l-247 -276v-373h-166v1434h166v-848l751 848h197l-608 -680l665 -754h-194z" glyph-name="K" horiz-adv-x="1361" unicode="K"/><glyph d="M295 152h670v-152h-836v1434h166v-1282z" glyph-name="L" horiz-adv-x="1052" unicode="L"/><glyph d="M1591 1434v-1434h-168v1087l-503 -1087h-132l-503 1087v-1087h-166v1434h166l569 -1227l569 1227h168z" glyph-name="M" horiz-adv-x="1708" unicode="M"/><glyph d="M1210 1434v-1434h-178l-747 1165v-1165h-166v1434h174l749 -1168v1168h168z" glyph-name="N" horiz-adv-x="1329" unicode="N"/><glyph d="M702.5 1450q286.5 0 455.5 -184.5t169 -549t-169 -548.5t-455.5 -184t-455.5 184t-169 548.5t169 549t455.5 184.5zM702 135q213 0 333 143.5t120 438.5t-120 438t-333 143t-332.5 -143t-119.5 -438t119.5 -438.5t332.5 -143.5z" glyph-name="O" horiz-adv-x="1404" unicode="O"/><glyph d="M639 1434q246 0 368.5 -121t122.5 -342q0 -219 -122.5 -339t-368.5 -120h-354v-512h-166v1434h520zM641 662q313 0 313 309q0 313 -313 313h-356v-622h356z" glyph-name="P" horiz-adv-x="1216" unicode="P"/><glyph d="M1389 68l-101 -99l-162 166q-160 -152 -424 -151q-287 0 -455.5 184t-168.5 548.5t169 549t455.5 184.5t455.5 -184.5t169 -548.5q0 -289 -113 -473zM702 135q195 0 310 115l-238 242l100 96l218 -219q63 137 63 348q0 295 -120 438t-333 143t-332.5 -143t-119.5 -438 t119.5 -438.5t332.5 -143.5z" glyph-name="Q" horiz-adv-x="1466" unicode="Q"/><glyph d="M1165 240q0 -184 41 -240h-176q-41 55 -41 240v114q0 131 -66.5 182.5t-181.5 51.5h-456v-588h-166v1434h559q485 0 485 -420q0 -250 -227 -348q121 -33 175 -107t54 -201v-118zM707 725q283 0 282 287q0 143 -74.5 207.5t-238.5 64.5h-391v-559h422z" glyph-name="R" horiz-adv-x="1271" unicode="R"/><glyph d="M727 793q213 -45 322.5 -140.5t109.5 -271.5q0 -188 -142.5 -292.5t-391.5 -104.5q-248 0 -382 112.5t-155 306.5h172q43 -274 365 -274q362 0 362 252q0 213 -274 270l-207 43q-381 82 -381 381q0 168 127 271.5t360 103.5q225 0 350 -96.5t148 -270.5h-170 q-35 221 -328 222q-164 0 -239.5 -64.5t-75.5 -167.5q0 -190 240 -239z" glyph-name="S" horiz-adv-x="1245" unicode="S"/><glyph d="M1063 1434v-150h-410v-1284h-168v1284h-407v150h575h410z" glyph-name="T" horiz-adv-x="1140" unicode="T"/><glyph d="M1206 541q0 -262 -146.5 -408.5t-397.5 -146.5q-250 0 -396.5 146.5t-146.5 408.5v893h166v-879q0 -209 96 -313.5t280.5 -104.5t281.5 105.5t97 312.5v879h166v-893z" glyph-name="U" horiz-adv-x="1325" unicode="U"/><glyph d="M1171 1434h177l-572 -1434h-141l-572 1434h177l465 -1223z" glyph-name="V" horiz-adv-x="1411" unicode="V"/><glyph d="M1823 1434h172l-416 -1434h-156l-393 1198l-391 -1198h-156l-415 1434h172l329 -1190l377 1190h170l375 -1190z" glyph-name="W" horiz-adv-x="2062" unicode="W"/><glyph d="M1298 0h-184l-430 612l-428 -612h-184l520 743l-483 691h184l391 -560l391 560h185l-484 -691z" glyph-name="X" horiz-adv-x="1370" unicode="X"/><glyph d="M762 565v-565h-168v565l-526 869h190l420 -717l420 717h190z" glyph-name="Y" horiz-adv-x="1353" unicode="Y"/><glyph d="M1141 150v-150h-1049v150l858 1134h-844v150h1016v-150l-858 -1134h877z" glyph-name="Z" horiz-adv-x="1232" unicode="Z"/><glyph d="M250 1389v-1518h176v-137h-334v1792h334v-137h-176z" glyph-name="bracketleft" horiz-adv-x="518" unicode="["/><glyph d="M123 1434h156l557 -1434h-158z" glyph-name="backslash" horiz-adv-x="917" unicode="\"/><glyph d="M268 1389h-176v137h334v-1792h-334v137h176v1518z" glyph-name="bracketright" horiz-adv-x="518" unicode="]"/><glyph d="M760 952l-268 375l-271 -375h-129l346 482h105l346 -482h-129z" glyph-name="asciicircum" horiz-adv-x="980" unicode="^"/><glyph d="M92 0h1024v-139h-1024v139z" glyph-name="underscore" horiz-adv-x="1208" unicode="_"/><glyph d="M360 1190h-139l-221 262h223z" glyph-name="grave" horiz-adv-x="360" unicode="`"/><glyph d="M967 188q0 -45 19.5 -63.5t64.5 -15.5v-109q-33 -10 -70 -10q-158 0 -158 153v74q-14 -31 -39.5 -63.5t-72.5 -75.5t-123 -69.5t-166 -26.5q-158 0 -256 80.5t-98 230.5q0 270 368 319q313 41 373 74v23q0 137 -62.5 190t-201.5 53q-236 0 -260 -149h-152 q16 135 124 204.5t290 69.5q217 0 318.5 -93t101.5 -312v-484zM809 336v237q-55 -31 -375 -75q-111 -16 -159 -64.5t-48 -134.5q0 -88 57.5 -140.5t162 -52.5t189.5 49.5t119 93.5t54 87z" glyph-name="a" horiz-adv-x="1105" unicode="a"/><glyph d="M621 1077q86 0 165.5 -32.5t147 -96t108.5 -171t41 -245.5q0 -268 -138 -409t-324 -141q-129 0 -220.5 62t-134.5 165v-209h-157v1434h157v-568q105 211 355 211zM596 113q141 0 236.5 106.5t95.5 312.5q0 205 -95.5 309.5t-236.5 104.5q-145 0 -241.5 -104.5t-96.5 -309 t97.5 -312t240.5 -107.5z" glyph-name="b" horiz-adv-x="1144" unicode="b"/><glyph d="M557 113q215 0 287 186h145q-88 -317 -434 -317q-201 0 -344 139t-143 409.5t143 408.5t344 138q340 0 430 -309h-145q-74 178 -283 178q-145 0 -239.5 -105.5t-94.5 -310t94.5 -311t239.5 -106.5z" glyph-name="c" horiz-adv-x="1046" unicode="c"/><glyph d="M528 1077q250 0 357 -211v568h157v-1434h-157v209q-43 -102 -135.5 -164.5t-221.5 -62.5q-184 0 -322 141t-138 409q0 266 138 405.5t322 139.5zM553 113q143 0 241.5 108.5t98.5 310.5q0 205 -97.5 309.5t-242.5 104.5q-141 0 -235.5 -104.5t-94.5 -309.5 q0 -207 94.5 -313t235.5 -106z" glyph-name="d" unicode="d"/><glyph d="M1034 524v-49h-811q14 -180 112.5 -271t239.5 -91q182 0 273 120h153q-66 -133 -172 -192t-266 -59q-201 0 -348 140t-147 408q0 264 145 405.5t346 141.5q203 0 339 -139.5t136 -413.5zM559 946q-133 0 -227 -92t-109 -268h656q-8 176 -96.5 268t-223.5 92z" glyph-name="e" horiz-adv-x="1101" unicode="e"/><glyph d="M494 1321q-78 0 -113 -34t-35 -120v-102h262v-131h-262v-934h-158v934h-151v131h151v104q0 88 24 146.5t67 86.5t88 39t104 11q68 0 152 -18v-125q-82 12 -129 12z" glyph-name="f" horiz-adv-x="688" unicode="f"/><glyph d="M885 1065h157v-1053v-12q-8 -451 -503 -451q-143 0 -256 55.5t-166 149.5l104 64q92 -135 318 -135q172 0 259 74.5t87 254.5v197q-43 -96 -135.5 -154.5t-221.5 -58.5q-184 0 -322 137t-138 399q0 266 138 405.5t322 139.5q250 0 357 -211v199zM553 131 q145 0 242.5 99.5t97.5 301.5q0 205 -97.5 307.5t-242.5 102.5q-141 0 -235.5 -102.5t-94.5 -307.5q0 -201 94.5 -301t235.5 -100z" glyph-name="g" unicode="g"/><glyph d="M645 1075q381 0 381 -424v-651h-158v641q0 295 -262 295q-141 0 -231 -90t-109 -187v-659h-157v1434h157v-369v-246q10 33 38 73t73 83t115.5 71.5t152.5 28.5z" glyph-name="h" horiz-adv-x="1138" unicode="h"/><glyph d="M119 1434h157v-154h-157v154zM119 1065h157v-1065h-157v1065z" glyph-name="i" horiz-adv-x="395" unicode="i"/><glyph d="M152 1434h157v-148h-157v148zM-139 -248q115 -51 182 -51q109 0 109 172v1192h157v-1221q0 -295 -254 -295q-94 0 -194 54v149z" glyph-name="j" horiz-adv-x="417" unicode="j"/><glyph d="M881 0l-451 477l-158 -164v-313h-157v342v1092h157v-928l539 559h190l-466 -479l534 -586h-188z" glyph-name="k" horiz-adv-x="1114" unicode="k"/><glyph d="M119 1434h157v-1434h-157v1434z" glyph-name="l" horiz-adv-x="395" unicode="l"/><glyph d="M1358 1075q164 0 265 -101.5t101 -328.5v-645h-157v639q0 158 -68.5 228.5t-181.5 70.5q-135 0 -227.5 -97.5t-92.5 -191.5v-649h-157v641q0 297 -250 297q-129 0 -214 -91t-104 -188v-659h-157v1065h157v-246q25 82 120 169t239 87q283 0 348 -260q37 100 139.5 180 t239.5 80z" glyph-name="m" horiz-adv-x="1839" unicode="m"/><glyph d="M651 1075q379 0 379 -424v-651h-158v641q0 297 -262 297q-139 0 -229 -91t-109 -188v-659h-157v1065h157v-246q25 82 125 169t254 87z" glyph-name="n" horiz-adv-x="1144" unicode="n"/><glyph d="M559 1077q197 0 345.5 -141t148.5 -406q0 -137 -44 -245.5t-116 -173t-158 -97t-176 -32.5q-123 0 -231.5 55t-184 184t-75.5 309q0 264 147 405.5t344 141.5zM897 530.5q0 204.5 -98.5 310t-239.5 105.5t-238.5 -105.5t-97.5 -310t97.5 -311t238.5 -106.5t239.5 106.5 t98.5 311z" glyph-name="o" horiz-adv-x="1118" unicode="o"/><glyph d="M621 1077q186 0 324 -140t138 -405q0 -268 -137 -407t-325 -139q-131 0 -222.5 60t-132.5 165v-600h-157v1454h157v-201q103 213 355 213zM596 121q143 0 237.5 102.5t94.5 308.5q0 205 -94.5 307.5t-237.5 102.5q-145 0 -241.5 -101.5t-96.5 -308.5q0 -205 96.5 -308 t241.5 -103z" glyph-name="p" horiz-adv-x="1146" unicode="p"/><glyph d="M530 1077q252 0 355 -213v201h157v-1454h-157v600q-41 -104 -132 -164.5t-223 -60.5q-188 0 -325 139t-137 407q0 264 138 404.5t324 140.5zM555 121q145 0 241.5 103.5t96.5 307.5q0 207 -96.5 308.5t-241.5 101.5q-143 0 -237.5 -102.5t-94.5 -307.5q0 -207 94.5 -309 t237.5 -102z" glyph-name="q" horiz-adv-x="1150" unicode="q"/><glyph d="M635 1075q20 0 78 -4v-139q-27 2 -72 2q-154 -2 -249 -84t-126 -227v-623h-157v1065h157v-264q27 117 125.5 195.5t243.5 78.5z" glyph-name="r" horiz-adv-x="759" unicode="r"/><glyph d="M754 799q-31 86 -93.5 121.5t-164.5 35.5q-236 0 -236 -165q0 -72 42 -111t142 -64l168 -41q172 -41 247 -96t75 -190q0 -158 -121 -230.5t-309 -72.5q-184 0 -300 76.5t-136 236.5h145q41 -193 291 -193q121 0 194.5 44.5t73.5 138.5q0 78 -44 113.5t-144 58.5l-189 45 q-152 37 -223.5 103.5t-71.5 181.5q0 137 104.5 211.5t289.5 74.5q336 0 405 -278h-145z" glyph-name="s" horiz-adv-x="999" unicode="s"/><glyph d="M442 123q55 0 133 14v-127q-61 -23 -172 -22q-98 0 -153 47t-55 166v733h-154v131h154v266h157v-266h205v-131h-205v-727q0 -45 20.5 -64.5t69.5 -19.5z" glyph-name="t" horiz-adv-x="643" unicode="t"/><glyph d="M874 1065h158v-1065h-158v246q-27 -82 -127 -169t-253 -87q-379 0 -379 424v651h157v-641q0 -295 263 -295q139 0 228 90t111 187v659z" glyph-name="u" horiz-adv-x="1144" unicode="u"/><glyph d="M649 0h-178l-424 1065h160l352 -903l354 903h160z" glyph-name="v" horiz-adv-x="1120" unicode="v"/><glyph d="M1597 1065l-317 -1065h-147l-312 870l-311 -870h-145l-318 1065h160l246 -870l305 870h129l303 -870l248 870h159z" glyph-name="w" horiz-adv-x="1644" unicode="w"/><glyph d="M1022 0h-176l-303 424l-305 -424h-175l392 547l-373 518h176l285 -395l284 395h174l-370 -518z" glyph-name="x" horiz-adv-x="1085" unicode="x"/><glyph d="M879 1065h157l-450 -1153q-68 -170 -168.5 -233.5t-249.5 -69.5v137q207 10 270 174l25 66l-416 1079h156l334 -889z" glyph-name="y" horiz-adv-x="1081" unicode="y"/><glyph d="M274 135h668v-135h-854v135l666 795h-645v135h833v-135z" glyph-name="z" horiz-adv-x="1028" unicode="z"/><glyph d="M342 766l-90 -139l90 -135v-551q0 -33 19.5 -51.5t52.5 -18.5h71v-137h-129q-72 0 -122 45t-50 131v571l-92 146l92 149v574q0 86 51.5 131t120.5 45h129v-137h-71q-33 0 -52.5 -18.5t-19.5 -51.5v-553z" glyph-name="braceleft" horiz-adv-x="577" unicode="{"/><glyph d="M154 1638h139v-2027h-139v2027z" glyph-name="bar" horiz-adv-x="446" unicode="|"/><glyph d="M236 766v553q0 33 -19.5 51.5t-52.5 18.5h-72v137h129q70 0 121 -45t51 -131v-574l92 -149l-92 -146v-571q0 -86 -50 -131t-122 -45h-129v137h72q33 0 52.5 18.5t19.5 51.5v551l92 135z" glyph-name="braceright" horiz-adv-x="577" unicode="}"/><glyph d="M772 670h80q0 -98 -59.5 -156.5t-151.5 -58.5q-80 0 -181.5 78.5t-164.5 78.5q-55 0 -85 -28.5t-28 -65.5h-80q0 98 59.5 156.5t151.5 58.5q51 0 100.5 -24.5t82 -54t76.5 -54.5t87 -25q55 0 85 29t28 66z" glyph-name="asciitilde" horiz-adv-x="954" unicode="~"/><glyph d="M156 860v205h184v-205h-184zM322 670v-1039h-175v1039h175z" glyph-name="exclamdown" horiz-adv-x="385" unicode="¡"/><glyph d="M989 446q-84 -291 -389 -309v-219h-100v219q-182 20 -307 155.5t-125 379.5q0 246 124.5 381t307.5 153v228h100v-228q303 -18 385 -299h-145q-68 158 -240 172v-813q176 14 244 180h145zM223 672q0 -178 77 -280.5t200 -123.5v809q-123 -20 -200 -122.5t-77 -282.5z" glyph-name="cent" horiz-adv-x="1034" unicode="¢"/><glyph d="M1016 983h-158v37q0 135 -81 213t-214 78q-137 0 -216 -74t-79 -197q0 -43 13.5 -93t25.5 -77.5t44 -90t40 -79.5h279v-98h-240q16 -55 16 -108q0 -195 -188 -375q90 31 188.5 31t174 -17.5t177 -19.5t197.5 26v-139q-106 -27 -217.5 -20.5t-197.5 26t-192.5 17 t-203.5 -42.5l-82 108q190 199 191 401q0 51 -21 113h-180v98h133q-4 10 -21.5 42t-24.5 45.5t-20.5 43t-19.5 49t-14 48t-11 56.5t-3 58q0 182 128 294t324 112q188 0 320.5 -118t132.5 -310v-37z" glyph-name="sterling" horiz-adv-x="1107" unicode="£"/><glyph d="M1034 975q0 -139 -80 -258l95 -94l-105 -103l-90 90q-123 -94 -278.5 -94t-276.5 92l-90 -88l-105 103l93 92q-80 115 -80 260q0 143 82 262l-95 94l105 105l92 -93q119 90 274 91q154 0 275 -93l94 95l105 -105l-97 -94q82 -121 82 -262zM575.5 649q139.5 0 233.5 99.5 t94 226.5q0 125 -94 225t-233.5 100t-232.5 -100t-93 -225q0 -127 93 -226.5t232.5 -99.5z" glyph-name="currency" horiz-adv-x="1153" unicode="¤"/><glyph d="M1288 1434l-522 -863h260v-104h-264v-111h264v-106h-264v-250h-168v250h-277v106h277v111h-277v104h271l-520 863h190l420 -717l420 717h190z" glyph-name="yen" horiz-adv-x="1343" unicode="¥"/><glyph d="M154 1638h139v-573h-139v573zM154 184h139v-573h-139v573z" glyph-name="brokenbar" horiz-adv-x="446" unicode="¦"/><glyph d="M1188 381q0 -147 -88 -242q68 -94 67 -227q0 -188 -142 -291.5t-392 -103.5q-248 0 -382 112.5t-155 307.5h172q43 -274 365 -275q362 0 362 252q0 213 -274 270l-207 43q-381 82 -381 381q0 150 94 244q-74 86 -73 223q0 168 127 271.5t360 103.5q225 0 350 -96.5 t148 -270.5h-170q-35 221 -328 222q-164 0 -239.5 -64.5t-75.5 -167.5q0 -190 239 -239l191 -41q213 -45 322.5 -140.5t109.5 -271.5zM735 326q145 -31 240 -82q41 57 41 137q0 213 -275 270l-206 43q-100 23 -175 58q-55 -57 -55 -146q0 -190 240 -239z" glyph-name="section" horiz-adv-x="1273" unicode="§"/><glyph d="M0 1452h166v-182h-166v182zM436 1452h164v-182h-164v182z" glyph-name="dieresis" horiz-adv-x="600" unicode="¨"/><glyph d="M803 -14q-307 0 -519 207.5t-212 523.5q0 313 213 521t518 208t518 -208t213 -521q0 -315 -212 -523t-519 -208zM803 88q264 0 447.5 178t183.5 450.5t-183.5 451t-447.5 178.5t-446.5 -178.5t-182.5 -451t182.5 -450.5t446.5 -178zM801 389q186 0 250 152h114 q-41 -133 -139 -194.5t-225 -61.5q-168 0 -289 116.5t-121 315t121 315.5t289 117q125 0 222 -61.5t140 -192.5h-116q-61 147 -246 147q-125 0 -210 -86t-85 -239.5t85 -240.5t210 -87z" glyph-name="copyright" horiz-adv-x="1605" unicode="©"/><glyph d="M633 946q0 -86 45 -160h-123q-27 33 -31 107q-90 -111 -215 -111q-242 0 -241 205q0 94 59 137t172 52l213 16q-2 82 -38 118t-120 36q-133 0 -200 -82l-68 67q88 119 268 119q156 0 218.5 -73.5t60.5 -233.5v-197zM319 887q76 0 125.5 40t67.5 83v94q-23 -6 -207 -21 q-63 -6 -91 -29.5t-28 -68.5q0 -98 133 -98z" glyph-name="ordfeminine" horiz-adv-x="735" unicode="ª"/><glyph d="M358 807l-184 -195l184 -196v-127l-266 184v277l266 184v-127zM717 807l-185 -195l185 -196v-127l-266 184v277l266 184v-127z" glyph-name="guillemotleft" horiz-adv-x="808" unicode="«"/><glyph d="M909 639v-363h-157v236h-660v127h817z" glyph-name="logicalnot" horiz-adv-x="999" unicode="¬"/><glyph d="M92 631h694v-115h-694v115z" glyph-name="uni00AD" horiz-adv-x="819" unicode="­"/><glyph d="M803 -14q-307 0 -519 207.5t-212 523.5q0 313 213 521t518 208t518 -208t213 -521q0 -315 -212 -523t-519 -208zM803 88q264 0 447.5 178t183.5 450.5t-183.5 451t-447.5 178.5t-446.5 -178.5t-182.5 -451t182.5 -450.5t446.5 -178zM1094 449q0 -113 24 -140h-102 q-20 27 -21 142v61q0 76 -38.5 102.5t-104.5 26.5h-234v-332h-98v815h307q268 0 269 -231q0 -154 -148 -205q78 -14 112 -55t34 -119v-65zM836 727q76 0 118.5 42t42.5 124q0 147 -170 147h-209v-313h218z" glyph-name="registered" horiz-adv-x="1605" unicode="®"/><glyph d="M0 1452h625v-100h-625v100z" glyph-name="macron" horiz-adv-x="624" unicode="¯"/><glyph d="M393 872q-125 0 -213 89.5t-88 214.5q0 123 88 210t213 87t213 -87.5t88 -209.5q0 -125 -88 -214.5t-213 -89.5zM393 993q78 0 128 54.5t50 128.5q0 72 -50 124t-128 52t-128 -52.5t-50 -123.5q0 -74 50 -128.5t128 -54.5z" glyph-name="degree" horiz-adv-x="786" unicode="°"/><glyph d="M600 723h363v-139h-363v-363h-147v363h-361v139h361v362h147v-362zM152 -33v117h749v-117h-749z" glyph-name="plusminus" horiz-adv-x="1054" unicode="±"/><glyph d="M113 901v19q0 76 34.5 131t116.5 108q86 53 101 80q14 20 14 51q0 39 -26.5 63.5t-69.5 24.5q-45 0 -72 -25.5t-27 -74.5v-14h-71v14q0 76 45 121t125 45q78 0 123 -43t45 -111q0 -59 -38 -99t-114 -85q-111 -68 -111 -135v-6h269v-64h-344z" glyph-name="uni00B2" horiz-adv-x="528" unicode="²"/><glyph d="M399 1186q47 -8 85 -42t38 -93q0 -68 -52 -113t-144 -45q-88 0 -139.5 48t-51.5 126h68q2 -113 125 -113q55 0 90 25t35 74q0 98 -138 98h-22v59h22q109 0 109 88q0 39 -27.5 61.5t-72.5 22.5q-104 0 -105 -106h-67q0 80 46 124t126 44q78 0 124 -40t46 -101 q-1 -90 -95 -117z" glyph-name="uni00B3" horiz-adv-x="559" unicode="³"/><glyph d="M0 1190l137 262h223l-221 -262h-139z" glyph-name="acute" horiz-adv-x="360" unicode="´"/><glyph d="M874 1065h158v-1065h-158v246q-27 -82 -127 -169t-253 -87q-133 0 -222 55v-434h-157v1454h157v-641q0 -295 263 -295q139 0 228 90t111 187v659z" glyph-name="uni00B5" horiz-adv-x="1132" unicode="µ"/><glyph d="M1079 1434v-1885h-131v1780h-178v-1780h-139v1078h-144q-199 0 -312.5 112.5t-113.5 288.5q0 178 114 292t312 114h283h309z" glyph-name="paragraph" horiz-adv-x="1191" unicode="¶"/><glyph d="M102 686h185v-203h-185v203z" glyph-name="periodcentered" horiz-adv-x="385" unicode="·"/><glyph d="M131 -111q76 8 134.5 -33.5t58.5 -119.5q0 -188 -314 -189v74q186 2 187 111q0 55 -48.5 73.5t-107.5 -14.5l-41 64l94 147h144z" glyph-name="cedilla" horiz-adv-x="323" unicode="¸"/><glyph d="M225 1436v-535h-67v440q-27 -49 -97 -49v70q29 0 56.5 22.5t40.5 51.5h67z" glyph-name="uni00B9" horiz-adv-x="368" unicode="¹"/><glyph d="M385 1450q125 0 222.5 -91t97.5 -245q0 -156 -97.5 -247t-222.5 -91q-123 0 -220 92.5t-97 246t97 244.5t220 91zM586 1116.5q0 106.5 -58.5 165.5t-142.5 59t-142.5 -59t-58.5 -165.5t58.5 -168t142.5 -61.5t142.5 61.5t58.5 168z" glyph-name="ordmasculine" horiz-adv-x="772" unicode="º"/><glyph d="M92 807v127l266 -184v-277l-266 -184v127l184 196zM451 807v127l266 -184v-277l-266 -184v127l184 196z" glyph-name="guillemotright" horiz-adv-x="808" unicode="»"/><glyph d="M283 1436v-535h-68v440q-27 -49 -96 -49v70q29 0 56.5 22.5t39.5 51.5h68zM190 0h-86l893 1434h86zM1128 135h-61v-135h-68v135h-243v55l243 345h68v-345h61v-55zM999 190v256l-180 -256h180z" glyph-name="onequarter" horiz-adv-x="1165" unicode="¼"/><glyph d="M289 1436v-535h-68v440q-29 -49 -96 -49v70q29 0 56.5 22.5t39.5 51.5h68zM215 0h-88l893 1434h88zM780 0v18q0 76 34 131.5t118 108.5q47 31 63.5 42t32.5 34.5t16 54.5q0 41 -25.5 64.5t-70.5 23.5t-71.5 -26.5t-26.5 -73.5v-15h-70v15q0 76 45 121t123 45 q80 0 125 -43t45 -111q0 -59 -38 -99t-115 -85q-109 -66 -109 -135v-7h266v-63h-342z" glyph-name="onehalf" horiz-adv-x="1204" unicode="½"/><glyph d="M360 1186q47 -8 84 -42t37 -93q0 -68 -52 -113t-142 -45t-141.5 48t-51.5 126h70q2 -113 125 -113t123 98.5t-138 98.5h-22v59h22q111 0 111 88q0 39 -27.5 61.5t-72.5 22.5q-104 0 -105 -106h-69q0 80 47 124t127 44q78 0 123 -40t45 -101q-1 -90 -93 -117zM272 0h-86 l893 1434h86zM1165 135h-61v-135h-68v135h-243v55l243 345h68v-345h61v-55zM1036 190v256l-180 -256h180z" glyph-name="threequarters" horiz-adv-x="1261" unicode="¾"/><glyph d="M602 860h-184v205h184v-205zM530 -383q-195 0 -316.5 102.5t-121.5 288.5q0 90 36 154.5t87 104.5t103.5 79t88 97.5t35.5 136.5v90h166v-90q0 -80 -26.5 -143.5t-66.5 -101.5t-86 -76t-86 -67.5t-66.5 -76.5t-26.5 -107q0 -121 73.5 -187.5t207 -66.5t211 82t77.5 238 h158q2 -221 -121 -339t-326 -118z" glyph-name="questiondown" horiz-adv-x="1069" unicode="¿"/><glyph d="M788 1559h-139l-221 262h223zM1190 0l-146 371h-663l-148 -371h-180l586 1434h145l588 -1434h-182zM432 500h561l-280 714z" glyph-name="Agrave" horiz-adv-x="1423" unicode="À"/><glyph d="M1004 1821l-222 -262h-139l137 262h224zM1190 0l-146 371h-663l-148 -371h-180l586 1434h145l588 -1434h-182zM432 500h561l-280 714z" glyph-name="Aacute" horiz-adv-x="1423" unicode="Á"/><glyph d="M713 1739l-197 -183h-127l184 265h277l184 -265h-127zM1190 0l-146 371h-663l-148 -371h-180l586 1434h145l588 -1434h-182zM432 500h561l-280 714z" glyph-name="Acircumflex" horiz-adv-x="1423" unicode="Â"/><glyph d="M537 1747q-53 0 -81 -26.5t-26 -61.5h-78q0 92 57.5 147.5t145.5 55.5q76 0 172 -74t156 -74q53 0 81.5 26.5t26.5 61.5h76q0 -92 -57.5 -147.5t-145.5 -55.5q-76 0 -172 74t-155 74zM1190 0l-146 371h-663l-148 -371h-180l586 1434h145l588 -1434h-182zM432 500h561 l-280 714z" glyph-name="Atilde" horiz-adv-x="1423" unicode="Ã"/><glyph d="M578 1821v-183h-166v183h166zM1012 1821v-183h-164v183h164zM1190 0l-146 371h-663l-148 -371h-180l586 1434h145l588 -1434h-182zM432 500h561l-280 714z" glyph-name="Adieresis" horiz-adv-x="1423" unicode="Ä"/><glyph d="M715 1559q-76 0 -127 50t-51 121.5t51 123t127 51.5q72 0 122 -51.5t50 -123t-50 -121.5t-122 -50zM711 1827q-39 0 -67 -27.5t-28 -68.5q0 -39 28 -67t67 -28t67.5 28t28.5 67q0 41 -27.5 68.5t-68.5 27.5zM1190 0l-146 371h-663l-148 -371h-180l586 1434h145l588 -1434 h-182zM432 500h561l-280 714z" glyph-name="Aring" horiz-adv-x="1423" unicode="Å"/><glyph d="M1202 152h758v-152h-926v446h-499l-304 -446h-178l981 1434h176h729v-152h-737v-473h615v-143h-615v-514zM627 582h407v596z" glyph-name="AE" horiz-adv-x="2029" unicode="Æ"/><glyph d="M1239 354q-37 -176 -177 -271t-349 -99l-88 -95q74 8 132 -33.5t58 -119.5q0 -188 -313 -189v74q186 2 186 111q0 55 -48 73.5t-108 -14.5l-26 41l-14 23l88 137q-233 37 -367.5 219t-134.5 506q0 362 169 547.5t453 185.5q213 0 355.5 -95t179.5 -274h-164 q-78 217 -369 217q-213 0 -332.5 -143t-119.5 -438t119.5 -438.5t332.5 -143.5q295 0 373 219h164z" glyph-name="Ccedilla" horiz-adv-x="1306" unicode="Ç"/><glyph d="M668 1559h-140l-221 262h223zM285 152h759v-152h-925v1434h905v-152h-739v-473h616v-143h-616v-514z" glyph-name="Egrave" horiz-adv-x="1120" unicode="È"/><glyph d="M881 1821l-222 -262h-139l137 262h224zM285 152h759v-152h-925v1434h905v-152h-739v-473h616v-143h-616v-514z" glyph-name="Eacute" horiz-adv-x="1120" unicode="É"/><glyph d="M592 1739l-197 -183h-127l185 265h276l184 -265h-127zM285 152h759v-152h-925v1434h905v-152h-739v-473h616v-143h-616v-514z" glyph-name="Ecircumflex" horiz-adv-x="1120" unicode="Ê"/><glyph d="M457 1821v-183h-166v183h166zM891 1821v-183h-164v183h164zM285 152h759v-152h-925v1434h905v-152h-739v-473h616v-143h-616v-514z" glyph-name="Edieresis" horiz-adv-x="1120" unicode="Ë"/><glyph d="M279 1559h-140l-221 262h223zM285 0h-166v1434h166v-1434z" glyph-name="Igrave" horiz-adv-x="403" unicode="Ì"/><glyph d="M133 1559l137 262h224l-222 -262h-139zM285 0h-166v1434h166v-1434z" glyph-name="Iacute" horiz-adv-x="403" unicode="Í"/><glyph d="M397 1556l-194 183l-197 -183h-127l184 265h277l184 -265h-127zM285 0h-166v1434h166v-1434z" glyph-name="Icircumflex" horiz-adv-x="403" unicode="Î"/><glyph d="M-98 1821h166v-183h-166v183zM338 1821h164v-183h-164v183zM285 0h-166v1434h166v-1434z" glyph-name="Idieresis" horiz-adv-x="403" unicode="Ï"/><glyph d="M713 1434q332 0 506 -186.5t174 -530.5t-174.5 -530.5t-505.5 -186.5h-451v655h-112v115h112v664h451zM698 152q268 0 395.5 139t127.5 426t-127 426t-396 139h-268v-512h414v-115h-414v-503h268z" glyph-name="Eth" horiz-adv-x="1556" unicode="Ð"/><glyph d="M946 1802h76q0 -92 -57.5 -147.5t-145.5 -55.5q-76 0 -172 74t-155 74q-53 0 -81 -26.5t-26 -61.5h-78q0 92 57.5 147.5t145.5 55.5q76 0 172 -74t156 -74q53 0 81.5 26.5t26.5 61.5zM1210 1434v-1434h-178l-747 1165v-1165h-166v1434h174l749 -1168v1168h168z" glyph-name="Ntilde" horiz-adv-x="1329" unicode="Ñ"/><glyph d="M778 1559h-139l-221 262h223zM702.5 1450q286.5 0 455.5 -184.5t169 -549t-169 -548.5t-455.5 -184t-455.5 184t-169 548.5t169 549t455.5 184.5zM702 135q213 0 333 143.5t120 438.5t-120 438t-333 143t-332.5 -143t-119.5 -438t119.5 -438.5t332.5 -143.5z" glyph-name="Ograve" horiz-adv-x="1404" unicode="Ò"/><glyph d="M633 1559l137 262h223l-221 -262h-139zM702.5 1450q286.5 0 455.5 -184.5t169 -549t-169 -548.5t-455.5 -184t-455.5 184t-169 548.5t169 549t455.5 184.5zM702 135q213 0 333 143.5t120 438.5t-120 438t-333 143t-332.5 -143t-119.5 -438t119.5 -438.5t332.5 -143.5z " glyph-name="Oacute" horiz-adv-x="1404" unicode="Ó"/><glyph d="M897 1556l-195 183l-196 -183h-127l184 265h277l184 -265h-127zM702.5 1450q286.5 0 455.5 -184.5t169 -549t-169 -548.5t-455.5 -184t-455.5 184t-169 548.5t169 549t455.5 184.5zM702 135q213 0 333 143.5t120 438.5t-120 438t-333 143t-332.5 -143t-119.5 -438 t119.5 -438.5t332.5 -143.5z" glyph-name="Ocircumflex" horiz-adv-x="1404" unicode="Ô"/><glyph d="M983 1802h76q0 -92 -57.5 -147.5t-145.5 -55.5q-76 0 -172 74t-156 74q-53 0 -80.5 -26.5t-25.5 -61.5h-78q0 92 57.5 147.5t145.5 55.5q76 0 172 -74t155 -74q53 0 82 26.5t27 61.5zM702.5 1450q286.5 0 455.5 -184.5t169 -549t-169 -548.5t-455.5 -184t-455.5 184 t-169 548.5t169 549t455.5 184.5zM702 135q213 0 333 143.5t120 438.5t-120 438t-333 143t-332.5 -143t-119.5 -438t119.5 -438.5t332.5 -143.5z" glyph-name="Otilde" horiz-adv-x="1404" unicode="Õ"/><glyph d="M401 1821h166v-183h-166v183zM838 1821h163v-183h-163v183zM702.5 1450q286.5 0 455.5 -184.5t169 -549t-169 -548.5t-455.5 -184t-455.5 184t-169 548.5t169 549t455.5 184.5zM702 135q213 0 333 143.5t120 438.5t-120 438t-333 143t-332.5 -143t-119.5 -438 t119.5 -438.5t332.5 -143.5z" glyph-name="Odieresis" horiz-adv-x="1404" unicode="Ö"/><glyph d="M807 786l-256 -256l256 -256l-98 -98l-256 256l-256 -258l-105 105l256 258l-254 254l99 98l253 -254l256 256z" glyph-name="multiply" horiz-adv-x="899" unicode="×"/><glyph d="M1085 1333q242 -182 242 -616q0 -365 -169 -549t-456 -184q-139 0 -243 41l-60 -127h-172l97 198q-246 186 -246 621q0 365 169 549t455 184q135 0 248 -41l56 117h172zM250 717q0 -319 145 -469l488 1020q-80 31 -181 30q-213 0 -332.5 -143t-119.5 -438zM702 135 q213 0 333 143.5t120 438.5q0 317 -143 465l-486 -1018q74 -29 176 -29z" glyph-name="Oslash" horiz-adv-x="1404" unicode="Ø"/><glyph d="M733 1559h-139l-221 262h223zM1206 541q0 -262 -146.5 -408.5t-397.5 -146.5q-250 0 -396.5 146.5t-146.5 408.5v893h166v-879q0 -209 96 -313.5t280.5 -104.5t281.5 105.5t97 312.5v879h166v-893z" glyph-name="Ugrave" horiz-adv-x="1325" unicode="Ù"/><glyph d="M588 1559l137 262h223l-221 -262h-139zM1206 541q0 -262 -146.5 -408.5t-397.5 -146.5q-250 0 -396.5 146.5t-146.5 408.5v893h166v-879q0 -209 96 -313.5t280.5 -104.5t281.5 105.5t97 312.5v879h166v-893z" glyph-name="Uacute" horiz-adv-x="1325" unicode="Ú"/><glyph d="M852 1556l-195 183l-196 -183h-127l184 265h277l184 -265h-127zM1206 541q0 -262 -146.5 -408.5t-397.5 -146.5q-250 0 -396.5 146.5t-146.5 408.5v893h166v-879q0 -209 96 -313.5t280.5 -104.5t281.5 105.5t97 312.5v879h166v-893z" glyph-name="Ucircumflex" horiz-adv-x="1325" unicode="Û"/><glyph d="M356 1821h166v-183h-166v183zM793 1821h163v-183h-163v183zM1206 541q0 -262 -146.5 -408.5t-397.5 -146.5q-250 0 -396.5 146.5t-146.5 408.5v893h166v-879q0 -209 96 -313.5t280.5 -104.5t281.5 105.5t97 312.5v879h166v-893z" glyph-name="Udieresis" horiz-adv-x="1325" unicode="Ü"/><glyph d="M608 1559l137 262h224l-221 -262h-140zM762 565v-565h-168v565l-526 869h190l420 -717l420 717h190z" glyph-name="Yacute" horiz-adv-x="1353" unicode="Ý"/><glyph d="M647 1157q246 0 390.5 -121t144.5 -315q0 -207 -142.5 -321.5t-392.5 -114.5h-340v-285h-157v1434h157v-277h340zM651 424q182 0 277.5 67.5t95.5 229.5q0 150 -98.5 224.5t-274.5 74.5h-344v-596h344z" glyph-name="Thorn" horiz-adv-x="1310" unicode="Þ"/><glyph d="M801 786q145 -27 228 -127t83 -239q0 -420 -539 -420h-127v139h129q379 0 379 281q0 145 -101 218t-286 73h-121v137h121q158 0 228.5 51t70.5 174q0 223 -297 223q-156 0 -224.5 -62.5t-68.5 -201.5v-1032h-157v1032q0 199 113.5 300.5t332.5 101.5q209 0 334 -95.5 t125 -265.5q0 -113 -58.5 -188.5t-164.5 -98.5z" glyph-name="germandbls" horiz-adv-x="1200" unicode="ß"/><glyph d="M618 1190h-139l-221 262h223zM967 188q0 -45 19.5 -63.5t64.5 -15.5v-109q-33 -10 -70 -10q-158 0 -158 153v74q-14 -31 -39.5 -63.5t-72.5 -75.5t-123 -69.5t-166 -26.5q-158 0 -256 80.5t-98 230.5q0 270 368 319q313 41 373 74v23q0 137 -62.5 190t-201.5 53 q-236 0 -260 -149h-152q16 135 124 204.5t290 69.5q217 0 318.5 -93t101.5 -312v-484zM809 336v237q-55 -31 -375 -75q-111 -16 -159 -64.5t-48 -134.5q0 -88 57.5 -140.5t162 -52.5t189.5 49.5t119 93.5t54 87z" glyph-name="agrave" horiz-adv-x="1105" unicode="à"/><glyph d="M834 1452l-222 -262h-139l137 262h224zM967 188q0 -45 19.5 -63.5t64.5 -15.5v-109q-33 -10 -70 -10q-158 0 -158 153v74q-14 -31 -39.5 -63.5t-72.5 -75.5t-123 -69.5t-166 -26.5q-158 0 -256 80.5t-98 230.5q0 270 368 319q313 41 373 74v23q0 137 -62.5 190t-201.5 53 q-236 0 -260 -149h-152q16 135 124 204.5t290 69.5q217 0 318.5 -93t101.5 -312v-484zM809 336v237q-55 -31 -375 -75q-111 -16 -159 -64.5t-48 -134.5q0 -88 57.5 -140.5t162 -52.5t189.5 49.5t119 93.5t54 87z" glyph-name="aacute" horiz-adv-x="1105" unicode="á"/><glyph d="M543 1370l-197 -182h-127l184 264h277l184 -264h-127zM967 188q0 -45 19.5 -63.5t64.5 -15.5v-109q-33 -10 -70 -10q-158 0 -158 153v74q-14 -31 -39.5 -63.5t-72.5 -75.5t-123 -69.5t-166 -26.5q-158 0 -256 80.5t-98 230.5q0 270 368 319q313 41 373 74v23 q0 137 -62.5 190t-201.5 53q-236 0 -260 -149h-152q16 135 124 204.5t290 69.5q217 0 318.5 -93t101.5 -312v-484zM809 336v237q-55 -31 -375 -75q-111 -16 -159 -64.5t-48 -134.5q0 -88 57.5 -140.5t162 -52.5t189.5 49.5t119 93.5t54 87z" glyph-name="acircumflex" horiz-adv-x="1105" unicode="â"/><glyph d="M369 1378q-53 0 -81 -26.5t-26 -61.5h-78q0 92 57.5 147.5t145.5 55.5q76 0 172 -73.5t156 -73.5q53 0 81.5 26.5t26.5 61.5h76q0 -92 -57.5 -147.5t-145.5 -55.5q-76 0 -172 73.5t-155 73.5zM967 188q0 -45 19.5 -63.5t64.5 -15.5v-109q-33 -10 -70 -10q-158 0 -158 153 v74q-14 -31 -39.5 -63.5t-72.5 -75.5t-123 -69.5t-166 -26.5q-158 0 -256 80.5t-98 230.5q0 270 368 319q313 41 373 74v23q0 137 -62.5 190t-201.5 53q-236 0 -260 -149h-152q16 135 124 204.5t290 69.5q217 0 318.5 -93t101.5 -312v-484zM809 336v237q-55 -31 -375 -75 q-111 -16 -159 -64.5t-48 -134.5q0 -88 57.5 -140.5t162 -52.5t189.5 49.5t119 93.5t54 87z" glyph-name="atilde" horiz-adv-x="1105" unicode="ã"/><glyph d="M410 1452v-182h-166v182h166zM844 1452v-182h-164v182h164zM967 188q0 -45 19.5 -63.5t64.5 -15.5v-109q-33 -10 -70 -10q-158 0 -158 153v74q-14 -31 -39.5 -63.5t-72.5 -75.5t-123 -69.5t-166 -26.5q-158 0 -256 80.5t-98 230.5q0 270 368 319q313 41 373 74v23 q0 137 -62.5 190t-201.5 53q-236 0 -260 -149h-152q16 135 124 204.5t290 69.5q217 0 318.5 -93t101.5 -312v-484zM809 336v237q-55 -31 -375 -75q-111 -16 -159 -64.5t-48 -134.5q0 -88 57.5 -140.5t162 -52.5t189.5 49.5t119 93.5t54 87z" glyph-name="adieresis" horiz-adv-x="1105" unicode="ä"/><glyph d="M545 1190q-76 0 -127 50t-51 122t51 123t127 51q72 0 122 -51t50 -123t-51 -122t-121 -50zM541 1458q-39 0 -67 -27.5t-28 -68.5q0 -39 28 -66.5t67 -27.5t67.5 27.5t28.5 66.5q0 41 -27.5 68.5t-68.5 27.5zM967 188q0 -45 19.5 -63.5t64.5 -15.5v-109q-33 -10 -70 -10 q-158 0 -158 153v74q-14 -31 -39.5 -63.5t-72.5 -75.5t-123 -69.5t-166 -26.5q-158 0 -256 80.5t-98 230.5q0 270 368 319q313 41 373 74v23q0 137 -62.5 190t-201.5 53q-236 0 -260 -149h-152q16 135 124 204.5t290 69.5q217 0 318.5 -93t101.5 -312v-484zM809 336v237 q-55 -31 -375 -75q-111 -16 -159 -64.5t-48 -134.5q0 -88 57.5 -140.5t162 -52.5t189.5 49.5t119 93.5t54 87z" glyph-name="aring" horiz-adv-x="1105" unicode="å"/><glyph d="M967 475q14 -180 111.5 -271t238.5 -91q182 0 272 120h156q-68 -133 -174.5 -192t-263.5 -59q-141 0 -263 71.5t-184 212.5q-55 -115 -162.5 -199.5t-275.5 -84.5q-158 0 -256 80.5t-98 230.5q0 270 368 319q313 41 373 74q0 152 -63.5 209t-202.5 57q-229 0 -258 -149 h-152q16 135 124 204.5t288 69.5q293 0 377 -180q137 180 378 180q203 0 339.5 -139t136.5 -414v-49h-809zM1300 946q-133 0 -226 -92t-107 -268h653q-8 176 -96.5 268t-223.5 92zM809 344v174v12v13v30q-55 -31 -375 -75q-111 -16 -159 -64.5t-48 -134.5q0 -88 57.5 -140.5 t161.5 -52.5q150 0 241 79t122 159z" glyph-name="ae" horiz-adv-x="1843" unicode="æ"/><glyph d="M989 299q-80 -287 -375 -315l-88 -95q74 8 132.5 -33.5t58.5 -119.5q0 -188 -314 -189v74q186 2 187 111q0 55 -48 73.5t-108 -14.5l-26 41l-15 23l84 133q-176 25 -292.5 162t-116.5 380q0 270 143 408.5t344 138.5q340 0 430 -309h-145q-74 178 -283 178 q-145 0 -239.5 -105.5t-94.5 -310t94.5 -311t239.5 -106.5q215 0 287 186h145z" glyph-name="ccedilla" horiz-adv-x="1046" unicode="ç"/><glyph d="M633 1190h-139l-222 262h224zM1034 524v-49h-811q14 -180 112.5 -271t239.5 -91q182 0 273 120h153q-66 -133 -172 -192t-266 -59q-201 0 -348 140t-147 408q0 264 145 405.5t346 141.5q203 0 339 -139.5t136 -413.5zM559 946q-133 0 -227 -92t-109 -268h656 q-8 176 -96.5 268t-223.5 92z" glyph-name="egrave" horiz-adv-x="1101" unicode="è"/><glyph d="M848 1452l-221 -262h-140l138 262h223zM1034 524v-49h-811q14 -180 112.5 -271t239.5 -91q182 0 273 120h153q-66 -133 -172 -192t-266 -59q-201 0 -348 140t-147 408q0 264 145 405.5t346 141.5q203 0 339 -139.5t136 -413.5zM559 946q-133 0 -227 -92t-109 -268h656 q-8 176 -96.5 268t-223.5 92z" glyph-name="eacute" horiz-adv-x="1101" unicode="é"/><glyph d="M557 1370l-197 -182h-127l185 264h276l185 -264h-127zM1034 524v-49h-811q14 -180 112.5 -271t239.5 -91q182 0 273 120h153q-66 -133 -172 -192t-266 -59q-201 0 -348 140t-147 408q0 264 145 405.5t346 141.5q203 0 339 -139.5t136 -413.5zM559 946q-133 0 -227 -92 t-109 -268h656q-8 176 -96.5 268t-223.5 92z" glyph-name="ecircumflex" horiz-adv-x="1101" unicode="ê"/><glyph d="M424 1452v-182h-166v182h166zM858 1452v-182h-164v182h164zM1034 524v-49h-811q14 -180 112.5 -271t239.5 -91q182 0 273 120h153q-66 -133 -172 -192t-266 -59q-201 0 -348 140t-147 408q0 264 145 405.5t346 141.5q203 0 339 -139.5t136 -413.5zM559 946 q-133 0 -227 -92t-109 -268h656q-8 176 -96.5 268t-223.5 92z" glyph-name="edieresis" horiz-adv-x="1101" unicode="ë"/><glyph d="M268 1190h-139l-221 262h223zM115 1065h157v-1065h-157v1065z" glyph-name="igrave" horiz-adv-x="385" unicode="ì"/><glyph d="M123 1190l137 262h223l-221 -262h-139zM115 1065h157v-1065h-157v1065z" glyph-name="iacute" horiz-adv-x="385" unicode="í"/><glyph d="M387 1188l-194 182l-197 -182h-127l184 264h277l184 -264h-127zM115 1065h157v-1065h-157v1065z" glyph-name="icircumflex" horiz-adv-x="385" unicode="î"/><glyph d="M-109 1452h166v-182h-166v182zM328 1452h164v-182h-164v182zM115 1065h157v-1065h-157v1065z" glyph-name="idieresis" horiz-adv-x="385" unicode="ï"/><glyph d="M813 1198q242 -322 242 -674q0 -260 -141.5 -402t-362.5 -142q-205 0 -344 141t-139 395q0 264 127 406.5t356 142.5q160 0 240 -80q-80 123 -134 193l-223 -27v90l160 21q-57 76 -139 172h170l123 -152l192 25v-93zM551 119q150 0 248 101.5t98 295.5q0 410 -346 410 q-326 0 -326 -410q0 -195 94.5 -296t231.5 -101z" glyph-name="eth" horiz-adv-x="1167" unicode="ð"/><glyph d="M397 1378q-53 0 -80.5 -26.5t-25.5 -61.5h-78q0 92 57.5 147.5t145.5 55.5q76 0 172 -73.5t155 -73.5q53 0 82 26.5t27 61.5h76q0 -92 -57.5 -147.5t-145.5 -55.5q-76 0 -172.5 73.5t-155.5 73.5zM651 1075q379 0 379 -424v-651h-158v641q0 297 -262 297q-139 0 -229 -91 t-109 -188v-659h-157v1065h157v-246q25 82 125 169t254 87z" glyph-name="ntilde" horiz-adv-x="1144" unicode="ñ"/><glyph d="M635 1190h-139l-222 262h224zM559 1077q197 0 345.5 -141t148.5 -406q0 -137 -44 -245.5t-116 -173t-158 -97t-176 -32.5q-123 0 -231.5 55t-184 184t-75.5 309q0 264 147 405.5t344 141.5zM897 530.5q0 204.5 -98.5 310t-239.5 105.5t-238.5 -105.5t-97.5 -310 t97.5 -311t238.5 -106.5t239.5 106.5t98.5 311z" glyph-name="ograve" horiz-adv-x="1118" unicode="ò"/><glyph d="M489 1190l138 262h223l-221 -262h-140zM559 1077q197 0 345.5 -141t148.5 -406q0 -137 -44 -245.5t-116 -173t-158 -97t-176 -32.5q-123 0 -231.5 55t-184 184t-75.5 309q0 264 147 405.5t344 141.5zM897 530.5q0 204.5 -98.5 310t-239.5 105.5t-238.5 -105.5t-97.5 -310 t97.5 -311t238.5 -106.5t239.5 106.5t98.5 311z" glyph-name="oacute" horiz-adv-x="1118" unicode="ó"/><glyph d="M754 1188l-195 182l-197 -182h-126l184 264h276l185 -264h-127zM559 1077q197 0 345.5 -141t148.5 -406q0 -137 -44 -245.5t-116 -173t-158 -97t-176 -32.5q-123 0 -231.5 55t-184 184t-75.5 309q0 264 147 405.5t344 141.5zM897 530.5q0 204.5 -98.5 310t-239.5 105.5 t-238.5 -105.5t-97.5 -310t97.5 -311t238.5 -106.5t239.5 106.5t98.5 311z" glyph-name="ocircumflex" horiz-adv-x="1118" unicode="ô"/><glyph d="M840 1434h75q0 -92 -57 -147.5t-145 -55.5q-76 0 -172.5 73.5t-155.5 73.5q-53 0 -81 -26.5t-25 -61.5h-78q0 92 57 147.5t145 55.5q76 0 172.5 -73.5t155.5 -73.5q53 0 82 26.5t27 61.5zM559 1077q197 0 345.5 -141t148.5 -406q0 -137 -44 -245.5t-116 -173t-158 -97 t-176 -32.5q-123 0 -231.5 55t-184 184t-75.5 309q0 264 147 405.5t344 141.5zM897 530.5q0 204.5 -98.5 310t-239.5 105.5t-238.5 -105.5t-97.5 -310t97.5 -311t238.5 -106.5t239.5 106.5t98.5 311z" glyph-name="otilde" horiz-adv-x="1118" unicode="õ"/><glyph d="M260 1452h166v-182h-166v182zM696 1452h164v-182h-164v182zM559 1077q197 0 345.5 -141t148.5 -406q0 -137 -44 -245.5t-116 -173t-158 -97t-176 -32.5q-123 0 -231.5 55t-184 184t-75.5 309q0 264 147 405.5t344 141.5zM897 530.5q0 204.5 -98.5 310t-239.5 105.5 t-238.5 -105.5t-97.5 -310t97.5 -311t238.5 -106.5t239.5 106.5t98.5 311z" glyph-name="odieresis" horiz-adv-x="1118" unicode="ö"/><glyph d="M473 817q-33 0 -55.5 22.5t-22.5 55.5q0 31 22.5 54.5t55.5 23.5t55.5 -23.5t22.5 -54.5q0 -33 -22.5 -55.5t-55.5 -22.5zM96 631h752v-115h-752v115zM473 174q-33 0 -55.5 22.5t-22.5 55.5q0 31 22.5 53.5t55.5 22.5t55.5 -22.5t22.5 -53.5q0 -33 -22.5 -55.5 t-55.5 -22.5z" glyph-name="divide" horiz-adv-x="940" unicode="÷"/><glyph d="M852 981q201 -152 201 -451q0 -137 -44 -245.5t-116 -173t-158 -97t-176 -32.5q-86 0 -172 30l-53 -114h-162l88 186q-193 147 -192 446q0 264 147 405.5t344 141.5q90 0 164 -28l65 135h162zM223 530.5q0 -204.5 101 -315.5l342 713q-53 18 -107 18 q-141 0 -238.5 -105.5t-97.5 -310zM559 113q141 0 239.5 106.5t98.5 310.5q0 207 -109 320l-342 -717q50 -20 113 -20z" glyph-name="oslash" horiz-adv-x="1118" unicode="ø"/><glyph d="M649 1190h-139l-221 262h223zM874 1065h158v-1065h-158v246q-27 -82 -127 -169t-253 -87q-379 0 -379 424v651h157v-641q0 -295 263 -295q139 0 228 90t111 187v659z" glyph-name="ugrave" horiz-adv-x="1144" unicode="ù"/><glyph d="M864 1452l-221 -262h-139l137 262h223zM874 1065h158v-1065h-158v246q-27 -82 -127 -169t-253 -87q-379 0 -379 424v651h157v-641q0 -295 263 -295q139 0 228 90t111 187v659z" glyph-name="uacute" horiz-adv-x="1144" unicode="ú"/><glyph d="M573 1370l-196 -182h-127l184 264h277l184 -264h-127zM874 1065h158v-1065h-158v246q-27 -82 -127 -169t-253 -87q-379 0 -379 424v651h157v-641q0 -295 263 -295q139 0 228 90t111 187v659z" glyph-name="ucircumflex" horiz-adv-x="1144" unicode="û"/><glyph d="M440 1452v-182h-166v182h166zM874 1452v-182h-163v182h163zM874 1065h158v-1065h-158v246q-27 -82 -127 -169t-253 -87q-379 0 -379 424v651h157v-641q0 -295 263 -295q139 0 228 90t111 187v659z" glyph-name="udieresis" horiz-adv-x="1144" unicode="ü"/><glyph d="M836 1452l-222 -262h-139l137 262h224zM879 1065h157l-450 -1153q-68 -170 -168.5 -233.5t-249.5 -69.5v137q207 10 270 174l25 66l-416 1079h156l334 -889z" glyph-name="yacute" horiz-adv-x="1081" unicode="ý"/><glyph d="M1077 528q-2 -268 -139 -407t-322 -139q-129 0 -221 62t-135 165v-598h-158v1454v369h158v-568q25 45 47 74q109 137 307 137h2q184 0 321.5 -138t139.5 -402v-2v-3v-2v-2zM907 393q14 57 15 139q0 115 -33 207q-80 203 -299 203q-152 0 -244 -104q-94 -111 -94 -306 q0 -164 70 -272q88 -139 268 -139q117 0 202.5 67.5t114.5 204.5z" glyph-name="thorn" horiz-adv-x="1202" unicode="þ"/><glyph d="M410 1452v-182h-166v182h166zM844 1452v-182h-164v182h164zM879 1065h157l-450 -1153q-68 -170 -168.5 -233.5t-249.5 -69.5v137q207 10 270 174l25 66l-416 1079h156l334 -889z" glyph-name="ydieresis" horiz-adv-x="1081" unicode="ÿ"/><glyph d="M1024 1821v-101h-625v101h625zM1190 0l-146 371h-663l-148 -371h-180l586 1434h145l588 -1434h-182zM432 500h561l-280 714z" glyph-name="Amacron" horiz-adv-x="1423" unicode="Ā"/><glyph d="M856 1452v-100h-625v100h625zM967 188q0 -45 19.5 -63.5t64.5 -15.5v-109q-33 -10 -70 -10q-158 0 -158 153v74q-14 -31 -39.5 -63.5t-72.5 -75.5t-123 -69.5t-166 -26.5q-158 0 -256 80.5t-98 230.5q0 270 368 319q313 41 373 74v23q0 137 -62.5 190t-201.5 53 q-236 0 -260 -149h-152q16 135 124 204.5t290 69.5q217 0 318.5 -93t101.5 -312v-484zM809 336v237q-55 -31 -375 -75q-111 -16 -159 -64.5t-48 -134.5q0 -88 57.5 -140.5t162 -52.5t189.5 49.5t119 93.5t54 87z" glyph-name="amacron" horiz-adv-x="1105" unicode="ā"/><glyph d="M713 1561q-150 0 -222.5 73.5t-72.5 186.5h108q20 -150 187 -150q168 0 184 150h111q0 -113 -74 -186.5t-221 -73.5zM1190 0l-146 371h-663l-148 -371h-180l586 1434h145l588 -1434h-182zM432 500h561l-280 714z" glyph-name="Abreve" horiz-adv-x="1423" unicode="Ă"/><glyph d="M543 1192q-150 0 -222.5 73.5t-72.5 186.5h108q20 -150 187 -149q168 0 184 149h111q0 -113 -74 -186.5t-221 -73.5zM967 188q0 -45 19.5 -63.5t64.5 -15.5v-109q-33 -10 -70 -10q-158 0 -158 153v74q-14 -31 -39.5 -63.5t-72.5 -75.5t-123 -69.5t-166 -26.5 q-158 0 -256 80.5t-98 230.5q0 270 368 319q313 41 373 74v23q0 137 -62.5 190t-201.5 53q-236 0 -260 -149h-152q16 135 124 204.5t290 69.5q217 0 318.5 -93t101.5 -312v-484zM809 336v237q-55 -31 -375 -75q-111 -16 -159 -64.5t-48 -134.5q0 -88 57.5 -140.5t162 -52.5 t189.5 49.5t119 93.5t54 87z" glyph-name="abreve" horiz-adv-x="1105" unicode="ă"/><glyph d="M1309 0q-121 -41 -186.5 -103.5t-65.5 -134.5q0 -63 51 -86.5t143 -5.5v-78q-45 -20 -102 -24t-112.5 7t-93.5 53t-38 106q0 94 88 165.5t197 100.5l-146 371h-663l-148 -371h-180l586 1434h145l588 -1434h-63zM432 500h561l-280 714z" glyph-name="Aogonek" horiz-adv-x="1423" unicode="Ą"/><glyph d="M1022 -6q-115 -43 -176.5 -104.5t-61.5 -129.5q0 -63 51.5 -86.5t143.5 -5.5v-78q-45 -20 -102.5 -24t-112.5 7t-93 53t-38 106q0 94 86 164.5t196 101.5q-92 25 -92 145v74q-14 -31 -39.5 -63.5t-72.5 -75.5t-123 -69.5t-166 -26.5q-158 0 -256 80.5t-98 230.5 q0 270 368 319q313 41 373 74v23q0 137 -62.5 190t-201.5 53q-236 0 -260 -149h-152q16 135 124 204.5t290 69.5q217 0 318.5 -93t101.5 -312v-484q0 -45 19.5 -63.5t64.5 -15.5v-109q-2 0 -13.5 -3t-15.5 -3zM809 336v237q-55 -31 -375 -75q-111 -16 -159 -64.5t-48 -134.5 q0 -88 57.5 -140.5t162 -52.5t189.5 49.5t119 93.5t54 87z" glyph-name="aogonek" horiz-adv-x="1105" unicode="ą"/><glyph d="M582 1559l137 262h223l-221 -262h-139zM702 135q295 0 373 219h164q-37 -180 -180.5 -275t-358.5 -95q-285 0 -453.5 185t-168.5 547.5t169 548t453 185.5q213 0 355.5 -95t179.5 -274h-164q-78 217 -369 217q-213 0 -332.5 -143t-119.5 -438t119.5 -438.5t332.5 -143.5z " glyph-name="Cacute" horiz-adv-x="1306" unicode="Ć"/><glyph d="M467 1190l137 262h223l-221 -262h-139zM557 113q215 0 287 186h145q-88 -317 -434 -317q-201 0 -344 139t-143 409.5t143 408.5t344 138q340 0 430 -309h-145q-74 178 -283 178q-145 0 -239.5 -105.5t-94.5 -310t94.5 -311t239.5 -106.5z" glyph-name="cacute" horiz-adv-x="1046" unicode="ć"/><glyph d="M569 1821h166v-183h-166v183zM702 135q295 0 373 219h164q-37 -180 -180.5 -275t-358.5 -95q-285 0 -453.5 185t-168.5 547.5t169 548t453 185.5q213 0 355.5 -95t179.5 -274h-164q-78 217 -369 217q-213 0 -332.5 -143t-119.5 -438t119.5 -438.5t332.5 -143.5z" glyph-name="Cdotaccent" horiz-adv-x="1306" unicode="Ċ"/><glyph d="M455 1452h166v-182h-166v182zM557 113q215 0 287 186h145q-88 -317 -434 -317q-201 0 -344 139t-143 409.5t143 408.5t344 138q340 0 430 -309h-145q-74 178 -283 178q-145 0 -239.5 -105.5t-94.5 -310t94.5 -311t239.5 -106.5z" glyph-name="cdotaccent" horiz-adv-x="1046" unicode="ċ"/><glyph d="M844 1804h127l-185 -266h-276l-184 266h127l196 -184zM702 135q295 0 373 219h164q-37 -180 -180.5 -275t-358.5 -95q-285 0 -453.5 185t-168.5 547.5t169 548t453 185.5q213 0 355.5 -95t179.5 -274h-164q-78 217 -369 217q-213 0 -332.5 -143t-119.5 -438t119.5 -438.5 t332.5 -143.5z" glyph-name="Ccaron" horiz-adv-x="1306" unicode="Č"/><glyph d="M729 1436h127l-184 -267h-277l-184 267h127l197 -185zM557 113q215 0 287 186h145q-88 -317 -434 -317q-201 0 -344 139t-143 409.5t143 408.5t344 138q340 0 430 -309h-145q-74 178 -283 178q-145 0 -239.5 -105.5t-94.5 -310t94.5 -311t239.5 -106.5z" glyph-name="ccaron" horiz-adv-x="1046" unicode="č"/><glyph d="M819 1538h-276l-185 266h127l197 -184l195 184h127zM569 1434q332 0 506 -186.5t174 -530.5t-174 -530.5t-506 -186.5h-450v1434h450zM555 152q268 0 394 139t126 426t-126 426t-394 139h-270v-1130h270z" glyph-name="Dcaron" horiz-adv-x="1347" unicode="Ď"/><glyph d="M528 1077q250 0 357 -211v568h157v-1434h-157v209q-43 -102 -135.5 -164.5t-221.5 -62.5q-184 0 -322 141t-138 409q0 266 138 405.5t322 139.5zM1126 1171l136 263h225l-223 -263h-138zM553 113q143 0 241.5 108.5t98.5 310.5q0 205 -97.5 309.5t-242.5 104.5 q-141 0 -235.5 -104.5t-94.5 -309.5q0 -207 94.5 -313t235.5 -106z" glyph-name="dcaron" horiz-adv-x="1521" unicode="ď"/><glyph d="M713 1434q332 0 506 -186.5t174 -530.5t-174.5 -530.5t-505.5 -186.5h-451v655h-112v115h112v664h451zM698 152q268 0 395.5 139t127.5 426t-127 426t-396 139h-268v-512h414v-115h-414v-503h268z" glyph-name="Dcroat" horiz-adv-x="1556" unicode="Đ"/><glyph d="M1239 1321v-100h-197v-1221h-157v209q-43 -102 -135.5 -164.5t-221.5 -62.5q-184 0 -322 141t-138 409q0 266 138 405.5t322 139.5q250 0 357 -211v355h-271v100h271v113h157v-113h197zM553 113q143 0 241.5 108.5t98.5 310.5q0 205 -97.5 309.5t-242.5 104.5 q-141 0 -235.5 -104.5t-94.5 -309.5q0 -207 94.5 -313t235.5 -106z" glyph-name="dcroat" horiz-adv-x="1275" unicode="đ"/><glyph d="M903 1821v-101h-624v101h624zM285 152h759v-152h-925v1434h905v-152h-739v-473h616v-143h-616v-514z" glyph-name="Emacron" horiz-adv-x="1120" unicode="Ē"/><glyph d="M870 1452v-100h-624v100h624zM1034 524v-49h-811q14 -180 112.5 -271t239.5 -91q182 0 273 120h153q-66 -133 -172 -192t-266 -59q-201 0 -348 140t-147 408q0 264 145 405.5t346 141.5q203 0 339 -139.5t136 -413.5zM559 946q-133 0 -227 -92t-109 -268h656 q-8 176 -96.5 268t-223.5 92z" glyph-name="emacron" horiz-adv-x="1101" unicode="ē"/><glyph d="M674 1821v-183h-166v183h166zM285 152h759v-152h-925v1434h905v-152h-739v-473h616v-143h-616v-514z" glyph-name="Edotaccent" horiz-adv-x="1120" unicode="Ė"/><glyph d="M641 1452v-182h-166v182h166zM1034 524v-49h-811q14 -180 112.5 -271t239.5 -91q182 0 273 120h153q-66 -133 -172 -192t-266 -59q-201 0 -348 140t-147 408q0 264 145 405.5t346 141.5q203 0 339 -139.5t136 -413.5zM559 946q-133 0 -227 -92t-109 -268h656 q-8 176 -96.5 268t-223.5 92z" glyph-name="edotaccent" horiz-adv-x="1101" unicode="ė"/><glyph d="M285 152h759v-152h-8q-121 -41 -186.5 -103.5t-65.5 -134.5q0 -63 51.5 -86.5t143.5 -5.5v-78q-45 -20 -102.5 -24t-112.5 7t-93 53t-38 106q0 94 88 165.5t197 100.5h-799v1434h905v-152h-739v-473h616v-143h-616v-514z" glyph-name="Eogonek" horiz-adv-x="1120" unicode="Ę"/><glyph d="M1034 524v-49h-811q14 -180 112.5 -271t239.5 -91q182 0 273 120h153q-111 -219 -352 -247q-111 -41 -170 -101.5t-59 -128.5q0 -63 51 -86.5t143 -5.5v-78q-45 -20 -102 -24t-112.5 7t-93.5 53t-38 106q0 86 75 153.5t175 102.5q-188 16 -319 155.5t-131 390.5 q0 264 145 405.5t346 141.5q203 0 339 -139.5t136 -413.5zM559 946q-133 0 -227 -92t-109 -268h656q-8 176 -96.5 268t-223.5 92z" glyph-name="eogonek" horiz-adv-x="1101" unicode="ę"/><glyph d="M727 1538h-276l-185 266h127l197 -184l194 184h127zM285 152h759v-152h-925v1434h905v-152h-739v-473h616v-143h-616v-514z" glyph-name="Ecaron" horiz-adv-x="1120" unicode="Ě"/><glyph d="M692 1169h-276l-185 267h127l197 -185l195 185h127zM1034 524v-49h-811q14 -180 112.5 -271t239.5 -91q182 0 273 120h153q-66 -133 -172 -192t-266 -59q-201 0 -348 140t-147 408q0 264 145 405.5t346 141.5q203 0 339 -139.5t136 -413.5zM559 946q-133 0 -227 -92 t-109 -268h656q-8 176 -96.5 268t-223.5 92z" glyph-name="ecaron" horiz-adv-x="1101" unicode="ě"/><glyph d="M684 1561q-150 0 -222.5 73.5t-72.5 186.5h109q20 -150 186 -150q168 0 184 150h111q0 -113 -74 -186.5t-221 -73.5zM1296 721q18 -377 -129 -557t-465 -180q-289 0 -456.5 184t-167.5 549q0 367 168 550t456 183q209 0 351.5 -91t181.5 -253h-158q-90 193 -375 192 q-215 0 -333.5 -143t-118.5 -438t118.5 -438.5t333.5 -143.5q221 0 328 106.5t115 344.5h-330v135h455h26z" glyph-name="Gbreve" horiz-adv-x="1366" unicode="Ğ"/><glyph d="M575 1192q-150 0 -222 73.5t-72 186.5h108q20 -150 186 -149q168 0 185 149h110q0 -113 -74 -186.5t-221 -73.5zM885 1065h157v-1053v-12q-8 -451 -503 -451q-143 0 -256 55.5t-166 149.5l104 64q92 -135 318 -135q172 0 259 74.5t87 254.5v197q-43 -96 -135.5 -154.5 t-221.5 -58.5q-184 0 -322 137t-138 399q0 266 138 405.5t322 139.5q250 0 357 -211v199zM553 131q145 0 242.5 99.5t97.5 301.5q0 205 -97.5 307.5t-242.5 102.5q-141 0 -235.5 -102.5t-94.5 -307.5q0 -201 94.5 -301t235.5 -100z" glyph-name="gbreve" unicode="ğ"/><glyph d="M768 1821v-183h-166v183h166zM1296 721q18 -377 -129 -557t-465 -180q-289 0 -456.5 184t-167.5 549q0 367 168 550t456 183q209 0 351.5 -91t181.5 -253h-158q-90 193 -375 192q-215 0 -333.5 -143t-118.5 -438t118.5 -438.5t333.5 -143.5q221 0 328 106.5t115 344.5 h-330v135h455h26z" glyph-name="Gdotaccent" horiz-adv-x="1366" unicode="Ġ"/><glyph d="M659 1452v-182h-165v182h165zM885 1065h157v-1053v-12q-8 -451 -503 -451q-143 0 -256 55.5t-166 149.5l104 64q92 -135 318 -135q172 0 259 74.5t87 254.5v197q-43 -96 -135.5 -154.5t-221.5 -58.5q-184 0 -322 137t-138 399q0 266 138 405.5t322 139.5q250 0 357 -211 v199zM553 131q145 0 242.5 99.5t97.5 301.5q0 205 -97.5 307.5t-242.5 102.5q-141 0 -235.5 -102.5t-94.5 -307.5q0 -201 94.5 -301t235.5 -100z" glyph-name="gdotaccent" unicode="ġ"/><glyph d="M1296 721q18 -377 -129 -557t-465 -180q-289 0 -456.5 184t-167.5 549q0 367 168 550t456 183q209 0 351.5 -91t181.5 -253h-158q-90 193 -375 192q-215 0 -333.5 -143t-118.5 -438t118.5 -438.5t333.5 -143.5q221 0 328 106.5t115 344.5h-330v135h455h26zM561 -324v199 h205v-254q0 -227 -205 -239v53q41 23 54.5 62.5t13.5 117.5v61h-68z" glyph-name="Gcommaaccent" horiz-adv-x="1366" unicode="Ģ"/><glyph d="M705 1389v-199h-207v254q0 227 204 239v-53q-41 -23 -54 -62.5t-13 -117.5v-61h70zM885 1065h157v-1053v-12q-8 -451 -503 -451q-143 0 -256 55.5t-166 149.5l104 64q92 -135 318 -135q172 0 259 74.5t87 254.5v197q-43 -96 -135.5 -154.5t-221.5 -58.5q-184 0 -322 137 t-138 399q0 266 138 405.5t322 139.5q250 0 357 -211v199zM553 131q145 0 242.5 99.5t97.5 301.5q0 205 -97.5 307.5t-242.5 102.5q-141 0 -235.5 -102.5t-94.5 -307.5q0 -201 94.5 -301t235.5 -100z" glyph-name="gcommaaccent" unicode="ģ"/><glyph d="M1042 1434h168v-1434h-168v633h-757v-633h-166v1434h166v-332h757v332zM285 770h757v205h-757v-205z" glyph-name="Hbar" horiz-adv-x="1329" unicode="Ħ"/><glyph d="M702 1075q381 0 381 -424v-651h-157v641q0 295 -262 295q-141 0 -231.5 -90t-108.5 -187v-659h-158v1145h-129v112h129v177h158v-177h241v-112h-241v-326q10 33 37.5 73t72.5 83t115.5 71.5t152.5 28.5z" glyph-name="hbar" horiz-adv-x="1196" unicode="ħ"/><glyph d="M-111 1821h625v-101h-625v101zM285 0h-166v1434h166v-1434z" glyph-name="Imacron" horiz-adv-x="403" unicode="Ī"/><glyph d="M-119 1452h625v-100h-625v100zM115 1065h157v-1065h-157v1065z" glyph-name="imacron" horiz-adv-x="385" unicode="ī"/><glyph d="M119 1434h166v-1434h-2q-121 -41 -186.5 -103.5t-65.5 -134.5q0 -63 51 -86.5t143 -5.5v-78q-45 -20 -102 -24t-112.5 7t-93.5 53t-38 106q0 94 88 165.5t197 100.5h-45v1434z" glyph-name="Iogonek" horiz-adv-x="403" unicode="Į"/><glyph d="M111 1452h165v-182h-165v182zM115 0v1065h157v-1065h-2q-121 -41 -186.5 -103.5t-65.5 -134.5q0 -63 51.5 -86.5t143.5 -5.5v-78q-45 -20 -102.5 -24t-112.5 7t-93 53t-38 106q0 94 88 165.5t197 100.5h-37z" glyph-name="iogonek" horiz-adv-x="385" unicode="į"/><glyph d="M121 1821h166v-183h-166v183zM285 0h-166v1434h166v-1434z" glyph-name="Idotaccent" horiz-adv-x="403" unicode="İ"/><glyph d="M115 1065h157v-1065h-157v1065z" glyph-name="dotlessi" horiz-adv-x="385" unicode="ı"/><glyph d="M285 0h-166v1434h166v-1434zM575 260q109 -131 289 -131q147 0 229.5 95t82.5 339v871h167v-891q0 -289 -134 -423t-345 -134q-248 0 -393 168z" glyph-name="IJ" horiz-adv-x="1462" unicode="Ĳ"/><glyph d="M119 1434h157v-154h-157v154zM547 1434h158v-148h-158v148zM119 1065h157v-1065h-157v1065zM256 -248q115 -51 182 -51q109 0 109 172v1192h158v-1221q0 -295 -254 -295q-94 0 -195 54v149z" glyph-name="ij" horiz-adv-x="811" unicode="ĳ"/><glyph d="M625 754l665 -754h-194l-564 649l-247 -276v-373h-166v1434h166v-848l751 848h197zM578 -324v199h204v-254q0 -227 -204 -239v53q41 23 54 62.5t13 117.5v61h-67z" glyph-name="Kcommaaccent" horiz-adv-x="1361" unicode="Ķ"/><glyph d="M535 586l534 -586h-188l-451 477l-158 -164v-313h-157v342v1092h157v-928l539 559h190zM436 -324v199h205v-254q0 -227 -205 -239v53q41 23 54.5 62.5t13.5 117.5v61h-68z" glyph-name="kcommaaccent" horiz-adv-x="1114" unicode="ķ"/><glyph d="M530 1817l-223 -263h-137l135 263h225zM295 152h670v-152h-836v1434h166v-1282z" glyph-name="Lacute" horiz-adv-x="1052" unicode="Ĺ"/><glyph d="M127 1559l137 262h223l-221 -262h-139zM119 1434h157v-1434h-157v1434z" glyph-name="lacute" horiz-adv-x="395" unicode="ĺ"/><glyph d="M295 152h670v-152h-836v1434h166v-1282zM477 -324v199h205v-254q0 -227 -205 -239v53q41 23 54.5 62.5t13.5 117.5v61h-68z" glyph-name="Lcommaaccent" horiz-adv-x="1052" unicode="Ļ"/><glyph d="M119 1434h157v-1434h-157v1434zM74 -618v53q41 23 54 62.5t13 117.5v61h-67v199h205v-254q0 -227 -205 -239z" glyph-name="lcommaaccent" horiz-adv-x="395" unicode="ļ"/><glyph d="M295 152h670v-152h-836v1434h166v-1282zM809 1182q0 -229 -205 -242v53q41 23 54.5 63t13.5 118v61h-68v199h205v-252z" glyph-name="Lcaron" horiz-adv-x="1052" unicode="Ľ"/><glyph d="M113 1434h157v-1434h-157v1434zM444 940v53q41 23 54.5 63t13.5 118v61h-68v199h205v-252q0 -230 -205 -242z" glyph-name="lcaron" horiz-adv-x="845" unicode="ľ"/><glyph d="M381 152h670v-152h-838v510l-156 -166v166l156 166v758h168v-582l223 235h2v-163l-225 -238v-534z" glyph-name="Lslash" horiz-adv-x="1138" unicode="Ł"/><glyph d="M592 1094v-181l-209 -219v-694h-158v528l-168 -178v182l168 177v725h158v-560l207 220h2z" glyph-name="lslash" horiz-adv-x="649" unicode="ł"/><glyph d="M596 1559l137 262h223l-221 -262h-139zM1210 1434v-1434h-178l-747 1165v-1165h-166v1434h174l749 -1168v1168h168z" glyph-name="Nacute" horiz-adv-x="1329" unicode="Ń"/><glyph d="M862 1452l-221 -262h-139l137 262h223zM651 1075q379 0 379 -424v-651h-158v641q0 297 -262 297q-139 0 -229 -91t-109 -188v-659h-157v1065h157v-246q25 82 125 169t254 87z" glyph-name="nacute" horiz-adv-x="1144" unicode="ń"/><glyph d="M1210 1434v-1434h-178l-747 1165v-1165h-166v1434h174l749 -1168v1168h168zM543 -618v53q41 23 54 62.5t13 117.5v61h-67v199h205v-254q0 -227 -205 -239z" glyph-name="Ncommaaccent" horiz-adv-x="1329" unicode="Ņ"/><glyph d="M651 1075q379 0 379 -424v-651h-158v641q0 297 -262 297q-139 0 -229 -91t-109 -188v-659h-157v1065h157v-246q25 82 125 169t254 87zM449 -324v199h204v-254q0 -227 -204 -239v53q41 23 54 62.5t13 117.5v61h-67z" glyph-name="ncommaaccent" horiz-adv-x="1144" unicode="ņ"/><glyph d="M858 1804h127l-184 -266h-277l-184 266h127l197 -184zM1210 1434v-1434h-178l-747 1165v-1165h-166v1434h174l749 -1168v1168h168z" glyph-name="Ncaron" horiz-adv-x="1329" unicode="Ň"/><glyph d="M707 1169h-277l-184 267h127l196 -185l195 185h127zM651 1075q379 0 379 -424v-651h-158v641q0 297 -262 297q-139 0 -229 -91t-109 -188v-659h-157v1065h157v-246q25 82 125 169t254 87z" glyph-name="ncaron" horiz-adv-x="1144" unicode="ň"/><glyph d="M391 1821h625v-101h-625v101zM702.5 1450q286.5 0 455.5 -184.5t169 -549t-169 -548.5t-455.5 -184t-455.5 184t-169 548.5t169 549t455.5 184.5zM702 135q213 0 333 143.5t120 438.5t-120 438t-333 143t-332.5 -143t-119.5 -438t119.5 -438.5t332.5 -143.5z" glyph-name="Omacron" horiz-adv-x="1404" unicode="Ō"/><glyph d="M248 1452h624v-100h-624v100zM559 1077q197 0 345.5 -141t148.5 -406q0 -137 -44 -245.5t-116 -173t-158 -97t-176 -32.5q-123 0 -231.5 55t-184 184t-75.5 309q0 264 147 405.5t344 141.5zM897 530.5q0 204.5 -98.5 310t-239.5 105.5t-238.5 -105.5t-97.5 -310 t97.5 -311t238.5 -106.5t239.5 106.5t98.5 311z" glyph-name="omacron" horiz-adv-x="1118" unicode="ō"/><glyph d="M442 1559l138 262h223l-221 -262h-140zM776 1559l137 262h224l-222 -262h-139zM702.5 1450q286.5 0 455.5 -184.5t169 -549t-169 -548.5t-455.5 -184t-455.5 184t-169 548.5t169 549t455.5 184.5zM702 135q213 0 333 143.5t120 438.5t-120 438t-333 143t-332.5 -143 t-119.5 -438t119.5 -438.5t332.5 -143.5z" glyph-name="Ohungarumlaut" horiz-adv-x="1404" unicode="Ő"/><glyph d="M299 1190l137 262h223l-221 -262h-139zM633 1190l137 262h223l-221 -262h-139zM559 1077q197 0 345.5 -141t148.5 -406q0 -137 -44 -245.5t-116 -173t-158 -97t-176 -32.5q-123 0 -231.5 55t-184 184t-75.5 309q0 264 147 405.5t344 141.5zM897 530.5q0 204.5 -98.5 310 t-239.5 105.5t-238.5 -105.5t-97.5 -310t97.5 -311t238.5 -106.5t239.5 106.5t98.5 311z" glyph-name="ohungarumlaut" horiz-adv-x="1118" unicode="ő"/><glyph d="M1327 152h758v-152h-926v168q-164 -184 -457 -184q-287 0 -455.5 184t-168.5 548.5t169 549t455 184.5q293 0 457 -184v168h905v-152h-737v-473h615v-143h-615v-514zM702 135q213 0 333 143.5t120 438.5t-120 438t-333 143t-332.5 -143t-119.5 -438t119.5 -438.5 t332.5 -143.5z" glyph-name="OE" horiz-adv-x="2154" unicode="Œ"/><glyph d="M1864 524v-49h-811q14 -180 112.5 -271t239.5 -91q182 0 272 120h154q-66 -133 -172.5 -192t-265.5 -59q-127 0 -240 59t-180 174q-68 -115 -179.5 -174t-234.5 -59t-231.5 55t-184 184t-75.5 309q0 264 147 405.5t344 141.5q123 0 234.5 -59.5t179.5 -173.5 q66 115 177.5 174t235.5 59q203 0 340.5 -139.5t137.5 -413.5zM1386 946q-131 0 -225 -93t-108 -267h655q-8 176 -97.5 268t-224.5 92zM559 113q141 0 239.5 106.5t98.5 311t-98.5 310t-239.5 105.5t-238.5 -105.5t-97.5 -310t97.5 -311t238.5 -106.5z" glyph-name="oe" horiz-adv-x="1931" unicode="œ"/><glyph d="M911 1821l-221 -262h-139l137 262h223zM1165 240q0 -184 41 -240h-176q-41 55 -41 240v114q0 131 -66.5 182.5t-181.5 51.5h-456v-588h-166v1434h559q485 0 485 -420q0 -250 -227 -348q121 -33 175 -107t54 -201v-118zM707 725q283 0 282 287q0 143 -74.5 207.5 t-238.5 64.5h-391v-559h422z" glyph-name="Racute" horiz-adv-x="1271" unicode="Ŕ"/><glyph d="M674 1452l-221 -262h-140l138 262h223zM635 1075q20 0 78 -4v-139q-27 2 -72 2q-154 -2 -249 -84t-126 -227v-623h-157v1065h157v-264q27 117 125.5 195.5t243.5 78.5z" glyph-name="racute" horiz-adv-x="759" unicode="ŕ"/><glyph d="M1165 240q0 -184 41 -240h-176q-41 55 -41 240v114q0 131 -66.5 182.5t-181.5 51.5h-456v-588h-166v1434h559q485 0 485 -420q0 -250 -227 -348q121 -33 175 -107t54 -201v-118zM707 725q283 0 282 287q0 143 -74.5 207.5t-238.5 64.5h-391v-559h422zM496 -324v199h204 v-254q0 -227 -204 -239v53q41 23 54 62.5t13 117.5v61h-67z" glyph-name="Rcommaaccent" horiz-adv-x="1271" unicode="Ŗ"/><glyph d="M635 1075q20 0 78 -4v-139q-27 2 -72 2q-154 -2 -249 -84t-126 -227v-623h-157v1065h157v-264q27 117 125.5 195.5t243.5 78.5zM154 -324v199h204v-254q0 -227 -204 -239v53q41 23 54 62.5t13 117.5v61h-67z" glyph-name="rcommaaccent" horiz-adv-x="759" unicode="ŗ"/><glyph d="M756 1538h-277l-184 266h127l196 -184l195 184h127zM1165 240q0 -184 41 -240h-176q-41 55 -41 240v114q0 131 -66.5 182.5t-181.5 51.5h-456v-588h-166v1434h559q485 0 485 -420q0 -250 -227 -348q121 -33 175 -107t54 -201v-118zM707 725q283 0 282 287 q0 143 -74.5 207.5t-238.5 64.5h-391v-559h422z" glyph-name="Rcaron" horiz-adv-x="1271" unicode="Ř"/><glyph d="M518 1169h-276l-185 267h127l197 -185l194 185h127zM635 1075q20 0 78 -4v-139q-27 2 -72 2q-154 -2 -249 -84t-126 -227v-623h-157v1065h157v-264q27 117 125.5 195.5t243.5 78.5z" glyph-name="rcaron" horiz-adv-x="759" unicode="ř"/><glyph d="M541 1559l137 262h223l-221 -262h-139zM727 793q213 -45 322.5 -140.5t109.5 -271.5q0 -188 -142.5 -292.5t-391.5 -104.5q-248 0 -382 112.5t-155 306.5h172q43 -274 365 -274q362 0 362 252q0 213 -274 270l-207 43q-381 82 -381 381q0 168 127 271.5t360 103.5 q225 0 350 -96.5t148 -270.5h-170q-35 221 -328 222q-164 0 -239.5 -64.5t-75.5 -167.5q0 -190 240 -239z" glyph-name="Sacute" horiz-adv-x="1245" unicode="Ś"/><glyph d="M430 1190l137 262h224l-222 -262h-139zM754 799q-31 86 -93.5 121.5t-164.5 35.5q-236 0 -236 -165q0 -72 42 -111t142 -64l168 -41q172 -41 247 -96t75 -190q0 -158 -121 -230.5t-309 -72.5q-184 0 -300 76.5t-136 236.5h145q41 -193 291 -193q121 0 194.5 44.5 t73.5 138.5q0 78 -44 113.5t-144 58.5l-189 45q-152 37 -223.5 103.5t-71.5 181.5q0 137 104.5 211.5t289.5 74.5q336 0 405 -278h-145z" glyph-name="sacute" horiz-adv-x="999" unicode="ś"/><glyph d="M1159 381q0 -178 -128 -281.5t-355 -113.5l-88 -97q74 8 132 -33.5t58 -119.5q0 -188 -313 -189v74q186 2 186 111q0 55 -48 73.5t-107 -14.5l-27 41l-14 23l84 133q-207 18 -320 127.5t-131 287.5h172q43 -274 365 -274q362 0 362 252q0 213 -274 270l-207 43 q-381 82 -381 381q0 168 127 271.5t360 103.5q225 0 350 -96.5t148 -270.5h-170q-35 221 -328 222q-164 0 -239.5 -64.5t-75.5 -167.5q0 -190 240 -239l190 -41q213 -45 322.5 -140.5t109.5 -271.5z" glyph-name="Scedilla" horiz-adv-x="1245" unicode="Ş"/><glyph d="M934 289q0 -143 -102.5 -216t-268.5 -85l-90 -99q74 8 132.5 -33.5t58.5 -119.5q0 -188 -314 -189v74q186 2 187 111q0 55 -48.5 73.5t-107.5 -14.5l-27 41l-14 23l86 135q-324 31 -358 309h145q41 -193 291 -193q121 0 194.5 44.5t73.5 138.5q0 78 -44 113.5t-144 58.5 l-189 45q-152 37 -223.5 103.5t-71.5 181.5q0 137 104.5 211.5t289.5 74.5q336 0 405 -278h-145q-31 86 -93.5 121.5t-164.5 35.5q-236 0 -236 -165q0 -72 42 -111t142 -64l168 -41q172 -41 247 -96t75 -190z" glyph-name="scedilla" horiz-adv-x="999" unicode="ş"/><glyph d="M803 1804h127l-185 -266h-276l-184 266h127l196 -184zM727 793q213 -45 322.5 -140.5t109.5 -271.5q0 -188 -142.5 -292.5t-391.5 -104.5q-248 0 -382 112.5t-155 306.5h172q43 -274 365 -274q362 0 362 252q0 213 -274 270l-207 43q-381 82 -381 381q0 168 127 271.5 t360 103.5q225 0 350 -96.5t148 -270.5h-170q-35 221 -328 222q-164 0 -239.5 -64.5t-75.5 -167.5q0 -190 240 -239z" glyph-name="Scaron" horiz-adv-x="1245" unicode="Š"/><glyph d="M692 1436h127l-184 -267h-277l-184 267h127l197 -185zM754 799q-31 86 -93.5 121.5t-164.5 35.5q-236 0 -236 -165q0 -72 42 -111t142 -64l168 -41q172 -41 247 -96t75 -190q0 -158 -121 -230.5t-309 -72.5q-184 0 -300 76.5t-136 236.5h145q41 -193 291 -193 q121 0 194.5 44.5t73.5 138.5q0 78 -44 113.5t-144 58.5l-189 45q-152 37 -223.5 103.5t-71.5 181.5q0 137 104.5 211.5t289.5 74.5q336 0 405 -278h-145z" glyph-name="scaron" horiz-adv-x="999" unicode="š"/><glyph d="M653 0h-8l-102 -111q74 8 132 -33.5t58 -119.5q0 -188 -313 -189v74q186 2 186 111q0 55 -48 73.5t-107 -14.5l-27 41l-14 23l92 145h-17v1284h-407v150h575h410v-150h-410v-1284z" glyph-name="Tcommaaccent" horiz-adv-x="1140" unicode="Ţ"/><glyph d="M575 10q-37 -14 -104 -20l-94 -101q74 8 132 -33.5t58 -119.5q0 -188 -313 -189v74q186 2 186 111q0 55 -48 73.5t-107 -14.5l-27 41l-14 23l90 139q-139 33 -139 207v733h-154v131h154v266h157v-266h205v-131h-205v-727q0 -45 20.5 -64.5t69.5 -19.5q55 0 133 14v-127z " glyph-name="tcommaaccent" horiz-adv-x="643" unicode="ţ"/><glyph d="M705 1538h-277l-184 266h127l196 -184l195 184h127zM1063 1434v-150h-410v-1284h-168v1284h-407v150h575h410z" glyph-name="Tcaron" horiz-adv-x="1140" unicode="Ť"/><glyph d="M795 1434l-222 -263h-139l135 263h226zM352 207q0 -45 20.5 -64.5t69.5 -19.5q55 0 133 14v-127q-61 -23 -172 -22q-98 0 -153 47t-55 166v733h-154v131h154v266h157v-266h205v-131h-205v-727z" glyph-name="tcaron" horiz-adv-x="831" unicode="ť"/><glyph d="M1063 1284h-410v-201h230v-100h-230v-983h-168v983h-227v100h227v201h-407v150h575h410v-150z" glyph-name="Tbar" horiz-adv-x="1140" unicode="Ŧ"/><glyph d="M442 123q55 0 133 14v-127q-61 -23 -172 -22q-98 0 -153 47t-55 166v438h-158v129h158v166h-154v131h154v266h157v-266h205v-131h-205v-166h201v-129h-201v-432q0 -45 20.5 -64.5t69.5 -19.5z" glyph-name="tbar" horiz-adv-x="638" unicode="ŧ"/><glyph d="M344 1821h625v-101h-625v101zM1206 541q0 -262 -146.5 -408.5t-397.5 -146.5q-250 0 -396.5 146.5t-146.5 408.5v893h166v-879q0 -209 96 -313.5t280.5 -104.5t281.5 105.5t97 312.5v879h166v-893z" glyph-name="Umacron" horiz-adv-x="1325" unicode="Ū"/><glyph d="M887 1452v-100h-625v100h625zM874 1065h158v-1065h-158v246q-27 -82 -127 -169t-253 -87q-379 0 -379 424v651h157v-641q0 -295 263 -295q139 0 228 90t111 187v659z" glyph-name="umacron" horiz-adv-x="1144" unicode="ū"/><glyph d="M842 1821h110q0 -113 -73.5 -186.5t-221.5 -73.5q-150 0 -222.5 73.5t-72.5 186.5h109q20 -150 186 -150q169 0 185 150zM1206 541q0 -262 -146.5 -408.5t-397.5 -146.5q-250 0 -396.5 146.5t-146.5 408.5v893h166v-879q0 -209 96 -313.5t280.5 -104.5t281.5 105.5 t97 312.5v879h166v-893z" glyph-name="Ubreve" horiz-adv-x="1325" unicode="Ŭ"/><glyph d="M573 1192q-150 0 -222 73.5t-72 186.5h108q20 -150 186 -149q168 0 185 149h110q0 -113 -74 -186.5t-221 -73.5zM874 1065h158v-1065h-158v246q-27 -82 -127 -169t-253 -87q-379 0 -379 424v651h157v-641q0 -295 263 -295q139 0 228 90t111 187v659z" glyph-name="ubreve" horiz-adv-x="1144" unicode="ŭ"/><glyph d="M659 1559q-76 0 -127 50t-51 121.5t51.5 123t126.5 51.5q72 0 122 -51.5t50 -123t-51 -121.5t-121 -50zM655 1636q39 0 68 28t29 67q0 41 -28 68.5t-69 27.5q-39 0 -66.5 -27.5t-27.5 -68.5q0 -39 27.5 -67t66.5 -28zM1206 541q0 -262 -146.5 -408.5t-397.5 -146.5 q-250 0 -396.5 146.5t-146.5 408.5v893h166v-879q0 -209 96 -313.5t280.5 -104.5t281.5 105.5t97 312.5v879h166v-893z" glyph-name="Uring" horiz-adv-x="1325" unicode="Ů"/><glyph d="M575 1190q-76 0 -127 50t-51 122t51.5 123t126.5 51q72 0 122.5 -51t50.5 -123t-50.5 -122t-122.5 -50zM571 1458q-39 0 -66.5 -27.5t-27.5 -68.5q0 -39 27.5 -66.5t66.5 -27.5t68 27.5t29 66.5q0 41 -28 68.5t-69 27.5zM874 1065h158v-1065h-158v246q-27 -82 -127 -169 t-253 -87q-379 0 -379 424v651h157v-641q0 -295 263 -295q139 0 228 90t111 187v659z" glyph-name="uring" horiz-adv-x="1144" unicode="ů"/><glyph d="M397 1559l138 262h223l-221 -262h-140zM731 1559l137 262h224l-222 -262h-139zM1206 541q0 -262 -146.5 -408.5t-397.5 -146.5q-250 0 -396.5 146.5t-146.5 408.5v893h166v-879q0 -209 96 -313.5t280.5 -104.5t281.5 105.5t97 312.5v879h166v-893z" glyph-name="Uhungarumlaut" horiz-adv-x="1325" unicode="Ű"/><glyph d="M674 1452l-221 -262h-140l138 262h223zM786 1190h-139l137 262h224zM874 1065h158v-1065h-158v246q-27 -82 -127 -169t-253 -87q-379 0 -379 424v651h157v-641q0 -295 263 -295q139 0 228 90t111 187v659z" glyph-name="uhungarumlaut" horiz-adv-x="1144" unicode="ű"/><glyph d="M1040 1434h166v-893q0 -221 -106.5 -362.5t-296.5 -178.5q-121 -41 -185.5 -103.5t-64.5 -134.5q0 -63 51 -86.5t144 -5.5v-78q-45 -20 -102.5 -24t-113 7t-93.5 53t-38 106q0 84 71 150.5t169 101.5q-242 6 -382 152.5t-140 402.5v893h166v-879q0 -209 96 -313.5 t280.5 -104.5t281.5 105.5t97 312.5v879z" glyph-name="Uogonek" horiz-adv-x="1325" unicode="Ų"/><glyph d="M874 1065h158v-1065h-39q-123 -41 -188.5 -103.5t-65.5 -134.5q0 -63 52.5 -86.5t142.5 -5.5v-78q-45 -20 -102.5 -24t-112.5 7t-92 53t-37 106q0 94 87 165.5t195 100.5h2v246q-27 -82 -127 -169t-253 -87q-379 0 -379 424v651h157v-641q0 -295 263 -295q139 0 228 90 t111 187v659z" glyph-name="uogonek" horiz-adv-x="1144" unicode="ų"/><glyph d="M1225 1556l-195 183l-196 -183h-127l184 265h276l185 -265h-127zM1823 1434h172l-416 -1434h-156l-393 1198l-391 -1198h-156l-415 1434h172l329 -1190l377 1190h170l375 -1190z" glyph-name="Wcircumflex" horiz-adv-x="2062" unicode="Ŵ"/><glyph d="M1018 1188l-195 182l-196 -182h-127l184 264h277l184 -264h-127zM1597 1065l-317 -1065h-147l-312 870l-311 -870h-145l-318 1065h160l246 -870l305 870h129l303 -870l248 870h159z" glyph-name="wcircumflex" horiz-adv-x="1644" unicode="ŵ"/><glyph d="M872 1556l-194 183l-197 -183h-127l185 265h276l184 -265h-127zM762 565v-565h-168v565l-526 869h190l420 -717l420 717h190z" glyph-name="Ycircumflex" horiz-adv-x="1353" unicode="Ŷ"/><glyph d="M545 1370l-197 -182h-127l185 264h276l184 -264h-127zM879 1065h157l-450 -1153q-68 -170 -168.5 -233.5t-249.5 -69.5v137q207 10 270 174l25 66l-416 1079h156l334 -889z" glyph-name="ycircumflex" horiz-adv-x="1081" unicode="ŷ"/><glyph d="M377 1821h166v-183h-166v183zM813 1821h164v-183h-164v183zM762 565v-565h-168v565l-526 869h190l420 -717l420 717h190z" glyph-name="Ydieresis" horiz-adv-x="1353" unicode="Ÿ"/><glyph d="M547 1559l137 262h223l-221 -262h-139zM1141 150v-150h-1049v150l858 1134h-844v150h1016v-150l-858 -1134h877z" glyph-name="Zacute" horiz-adv-x="1232" unicode="Ź"/><glyph d="M440 1190l138 262h223l-221 -262h-140zM274 135h668v-135h-854v135l666 795h-645v135h833v-135z" glyph-name="zacute" horiz-adv-x="1028" unicode="ź"/><glyph d="M535 1821h165v-183h-165v183zM1141 150v-150h-1049v150l858 1134h-844v150h1016v-150l-858 -1134h877z" glyph-name="Zdotaccent" horiz-adv-x="1232" unicode="Ż"/><glyph d="M428 1452h166v-182h-166v182zM274 135h668v-135h-854v135l666 795h-645v135h833v-135z" glyph-name="zdotaccent" horiz-adv-x="1028" unicode="ż"/><glyph d="M809 1804h127l-184 -266h-277l-184 266h127l196 -184zM1141 150v-150h-1049v150l858 1134h-844v150h1016v-150l-858 -1134h877z" glyph-name="Zcaron" horiz-adv-x="1232" unicode="Ž"/><glyph d="M702 1436h127l-184 -267h-276l-185 267h127l197 -185zM274 135h668v-135h-854v135l666 795h-645v135h833v-135z" glyph-name="zcaron" horiz-adv-x="1028" unicode="ž"/><glyph d="M541 1303q-94 0 -135 -48.5t-41 -167.5v-210h176v-140h-176v-792q0 -184 -87.5 -259t-246.5 -75v137q94 0 135 48t41 169v772h-162v140h162v231q0 184 87 259t247 75v-139z" glyph-name="florin" horiz-adv-x="602" unicode="ƒ"/><glyph d="M848 1538h-277l-184 266h127l197 -184l194 184h127zM1190 0l-146 371h-663l-148 -371h-180l586 1434h145l588 -1434h-182zM432 500h561l-280 714z" glyph-name="uni01CD" horiz-adv-x="1423" unicode="Ǎ"/><glyph d="M678 1169h-277l-184 267h127l197 -185l194 185h127zM967 188q0 -45 19.5 -63.5t64.5 -15.5v-109q-33 -10 -70 -10q-158 0 -158 153v74q-14 -31 -39.5 -63.5t-72.5 -75.5t-123 -69.5t-166 -26.5q-158 0 -256 80.5t-98 230.5q0 270 368 319q313 41 373 74v23 q0 137 -62.5 190t-201.5 53q-236 0 -260 -149h-152q16 135 124 204.5t290 69.5q217 0 318.5 -93t101.5 -312v-484zM809 336v237q-55 -31 -375 -75q-111 -16 -159 -64.5t-48 -134.5q0 -88 57.5 -140.5t162 -52.5t189.5 49.5t119 93.5t54 87z" glyph-name="uni01CE" horiz-adv-x="1105" unicode="ǎ"/><glyph d="M395 1804h127l-184 -266h-277l-184 266h127l197 -184zM285 0h-166v1434h166v-1434z" glyph-name="uni01CF" horiz-adv-x="403" unicode="Ǐ"/><glyph d="M385 1436h127l-184 -267h-277l-184 267h127l196 -185zM115 1065h157v-1065h-157v1065z" glyph-name="uni01D0" horiz-adv-x="385" unicode="ǐ"/><glyph d="M895 1804h127l-184 -266h-277l-184 266h127l196 -184zM702.5 1450q286.5 0 455.5 -184.5t169 -549t-169 -548.5t-455.5 -184t-455.5 184t-169 548.5t169 549t455.5 184.5zM702 135q213 0 333 143.5t120 438.5t-120 438t-333 143t-332.5 -143t-119.5 -438t119.5 -438.5 t332.5 -143.5z" glyph-name="uni01D1" horiz-adv-x="1404" unicode="Ǒ"/><glyph d="M752 1436h127l-185 -267h-276l-185 267h127l197 -185zM559 1077q197 0 345.5 -141t148.5 -406q0 -137 -44 -245.5t-116 -173t-158 -97t-176 -32.5q-123 0 -231.5 55t-184 184t-75.5 309q0 264 147 405.5t344 141.5zM897 530.5q0 204.5 -98.5 310t-239.5 105.5 t-238.5 -105.5t-97.5 -310t97.5 -311t238.5 -106.5t239.5 106.5t98.5 311z" glyph-name="uni01D2" horiz-adv-x="1118" unicode="ǒ"/><glyph d="M850 1804h127l-184 -266h-277l-184 266h127l196 -184zM1206 541q0 -262 -146.5 -408.5t-397.5 -146.5q-250 0 -396.5 146.5t-146.5 408.5v893h166v-879q0 -209 96 -313.5t280.5 -104.5t281.5 105.5t97 312.5v879h166v-893z" glyph-name="uni01D3" horiz-adv-x="1325" unicode="Ǔ"/><glyph d="M709 1169h-277l-184 267h127l196 -185l195 185h127zM874 1065h158v-1065h-158v246q-27 -82 -127 -169t-253 -87q-379 0 -379 424v651h157v-641q0 -295 263 -295q139 0 228 90t111 187v659z" glyph-name="uni01D4" horiz-adv-x="1144" unicode="ǔ"/><glyph d="M860 0q-121 -41 -185.5 -103.5t-64.5 -134.5q0 -63 51.5 -86.5t143.5 -5.5v-78q-45 -20 -102.5 -24t-112.5 7t-93 53t-38 106q0 82 68.5 147.5t164.5 102.5q-283 4 -448.5 188t-165.5 545q0 365 169 549t455.5 184t455.5 -184.5t169 -548.5q0 -309 -124 -489.5 t-343 -227.5zM250 717q0 -295 119.5 -438.5t332.5 -143.5t333 143.5t120 438.5t-120 438t-333 143t-332.5 -143t-119.5 -438z" glyph-name="uni01EA" horiz-adv-x="1404" unicode="Ǫ"/><glyph d="M688 -2q-121 -41 -184.5 -102.5t-63.5 -133.5q0 -63 51.5 -86.5t143.5 -5.5v-78q-45 -20 -102.5 -24t-112.5 7t-93 53t-38 106q0 82 67.5 147.5t163.5 102.5q-186 14 -319 154.5t-133 391.5q0 264 147 405.5t344 141.5t345.5 -141t148.5 -406q0 -219 -104.5 -354 t-260.5 -178zM223 530.5q0 -204.5 97.5 -311t238.5 -106.5t239.5 106.5t98.5 311t-98.5 310t-239.5 105.5t-238.5 -105.5t-97.5 -310z" glyph-name="uni01EB" horiz-adv-x="1118" unicode="ǫ"/><glyph d="M727 793q213 -45 322.5 -140.5t109.5 -271.5q0 -188 -142.5 -292.5t-391.5 -104.5q-248 0 -382 112.5t-155 306.5h172q43 -274 365 -274q362 0 362 252q0 213 -274 270l-207 43q-381 82 -381 381q0 168 127 271.5t360 103.5q225 0 350 -96.5t148 -270.5h-170 q-35 221 -328 222q-164 0 -239.5 -64.5t-75.5 -167.5q0 -190 240 -239zM492 -618v53q41 23 54 62.5t13 117.5v61h-67v199h204v-254q1 -227 -204 -239z" glyph-name="Scommaaccent" horiz-adv-x="1245" unicode="Ș"/><glyph d="M754 799q-31 86 -93.5 121.5t-164.5 35.5q-236 0 -236 -165q0 -72 42 -111t142 -64l168 -41q172 -41 247 -96t75 -190q0 -158 -121 -230.5t-309 -72.5q-184 0 -300 76.5t-136 236.5h145q41 -193 291 -193q121 0 194.5 44.5t73.5 138.5q0 78 -44 113.5t-144 58.5l-189 45 q-152 37 -223.5 103.5t-71.5 181.5q0 137 104.5 211.5t289.5 74.5q336 0 405 -278h-145zM377 -618v53q41 23 54 62.5t13 117.5v61h-67v199h205v-254q0 -227 -205 -239z" glyph-name="scommaaccent" horiz-adv-x="999" unicode="ș"/><glyph d="M1063 1434v-150h-410v-1284h-168v1284h-407v150h575h410zM446 -324v199h205v-254q0 -227 -205 -239v53q41 23 54.5 62.5t13.5 117.5v61h-68z" glyph-name="uni021A" horiz-adv-x="1140" unicode="Ț"/><glyph d="M442 123q55 0 133 14v-127q-61 -23 -172 -22q-98 0 -153 47t-55 166v733h-154v131h154v266h157v-266h205v-131h-205v-727q0 -45 20.5 -64.5t69.5 -19.5zM281 -324v199h204v-254q0 -227 -204 -239v53q41 23 54 62.5t13 117.5v61h-67z" glyph-name="uni021B" horiz-adv-x="643" unicode="ț"/><glyph d="M-121 -217q115 -51 182 -51q109 0 109 172v1161h158v-1190q0 -295 -254 -295q-94 0 -195 53v150z" glyph-name="uni0237" horiz-adv-x="487" unicode="ȷ"/><glyph d="M518 1188l-194 182l-197 -182h-127l184 264h277l184 -264h-127z" glyph-name="circumflex" horiz-adv-x="645" unicode="ˆ"/><glyph d="M518 1434h127l-184 -265h-277l-184 265h127l197 -183z" glyph-name="caron" horiz-adv-x="645" unicode="ˇ"/><glyph d="M479 1452h111q0 -113 -74 -186.5t-221 -73.5q-150 0 -222.5 73.5t-72.5 186.5h109q20 -150 186 -149q168 -1 184 149z" glyph-name="breve" horiz-adv-x="589" unicode="˘"/><glyph d="M0 1452h166v-182h-166v182z" glyph-name="dotaccent" horiz-adv-x="165" unicode="˙"/><glyph d="M178 1190q-76 0 -127 50t-51 122t51 123t127 51q72 0 122 -51t50 -123t-50 -122t-122 -50zM174 1268q39 0 67.5 27.5t28.5 66.5q0 41 -27.5 68.5t-68.5 27.5q-39 0 -66.5 -27.5t-27.5 -68.5q0 -39 27.5 -66.5t66.5 -27.5z" glyph-name="ring" horiz-adv-x="350" unicode="˚"/><glyph d="M346 -408q-45 -20 -102.5 -24t-112.5 7t-93 53t-38 106q0 94 88 165.5t197 100.5h118q-121 -41 -186 -103.5t-65 -134.5q0 -63 51 -86.5t143 -5.5v-78z" glyph-name="ogonek" horiz-adv-x="403" unicode="˛"/><glyph d="M639 1434h76q0 -92 -57.5 -147.5t-145.5 -55.5q-76 0 -172 73.5t-156 73.5q-53 0 -80.5 -26.5t-25.5 -61.5h-78q0 92 57.5 147.5t145.5 55.5q76 0 172 -73.5t155 -73.5q53 0 82 26.5t27 61.5z" glyph-name="tilde" horiz-adv-x="714" unicode="˜"/><glyph d="M0 1190l137 262h223l-221 -262h-139zM334 1190l137 262h223l-221 -262h-139z" glyph-name="hungarumlaut" horiz-adv-x="694" unicode="˝"/><glyph d="M-223 -618v53q39 23 52 61.5t13 118.5v61h-67v199h207v-254q0 -227 -205 -239z" glyph-name="uni0326" horiz-adv-x="0" unicode="̦"/><glyph d="M1395 0h-1297l625 1434h47zM1186 139l-438 1028l-443 -1028h881z" glyph-name="Delta" horiz-adv-x="1492" unicode="Δ"/><glyph d="M1507 731q0 -348 -323 -579h272v-152h-420v227l84 64q227 176 228 440q0 246 -166 405.5t-385 159.5q-217 0 -383 -159.5t-166 -405.5q0 -264 225 -440l84 -64v-227h-420v152h273q-324 233 -324 579q0 303 217 510t493.5 207t493.5 -207t217 -510z" glyph-name="Omega" horiz-adv-x="1595" unicode="Ω"/><glyph d="M874 1065h158v-1065h-158v246q-27 -82 -127 -169t-253 -87q-133 0 -222 55v-434h-157v1454h157v-641q0 -295 263 -295q139 0 228 90t111 187v659z" glyph-name="mu" horiz-adv-x="1144" unicode="μ"/><glyph d="M1137 127q66 0 139 37v-139q-74 -37 -168 -37t-154.5 48t-60.5 157v735h-432v-928h-158v928h-205v137h1155v-137h-202v-688q0 -68 19.5 -90.5t66.5 -22.5z" glyph-name="pi" horiz-adv-x="1363" unicode="π"/><glyph d="M639 922q246 0 368.5 -120t122.5 -339q0 -221 -122.5 -342t-368.5 -121h-520v1434h166h723v-138h-723v-374h354zM641 150q313 0 313 313q0 309 -313 309h-356v-622h356z" glyph-name="afii10018" horiz-adv-x="1306" unicode="Б"/><glyph d="M1106 1559h-139l-222 262h224zM1823 1434h172l-416 -1434h-156l-393 1198l-391 -1198h-156l-415 1434h172l329 -1190l377 1190h170l375 -1190z" glyph-name="Wgrave" horiz-adv-x="2062" unicode="Ẁ"/><glyph d="M899 1190h-139l-221 262h223zM1597 1065l-317 -1065h-147l-312 870l-311 -870h-145l-318 1065h160l246 -870l305 870h129l303 -870l248 870h159z" glyph-name="wgrave" horiz-adv-x="1644" unicode="ẁ"/><glyph d="M961 1559l137 262h223l-221 -262h-139zM1823 1434h172l-416 -1434h-156l-393 1198l-391 -1198h-156l-415 1434h172l329 -1190l377 1190h170l375 -1190z" glyph-name="Wacute" horiz-adv-x="2062" unicode="Ẃ"/><glyph d="M754 1190l137 262h223l-221 -262h-139zM1597 1065l-317 -1065h-147l-312 870l-311 -870h-145l-318 1065h160l246 -870l305 870h129l303 -870l248 870h159z" glyph-name="wacute" horiz-adv-x="1644" unicode="ẃ"/><glyph d="M731 1821h166v-183h-166v183zM1167 1821h164v-183h-164v183zM1823 1434h172l-416 -1434h-156l-393 1198l-391 -1198h-156l-415 1434h172l329 -1190l377 1190h170l375 -1190z" glyph-name="Wdieresis" horiz-adv-x="2062" unicode="Ẅ"/><glyph d="M522 1452h166v-182h-166v182zM958 1452h164v-182h-164v182zM1597 1065l-317 -1065h-147l-312 870l-311 -870h-145l-318 1065h160l246 -870l305 870h129l303 -870l248 870h159z" glyph-name="wdieresis" horiz-adv-x="1644" unicode="ẅ"/><glyph d="M754 1559h-140l-221 262h223zM762 565v-565h-168v565l-526 869h190l420 -717l420 717h190z" glyph-name="Ygrave" horiz-adv-x="1353" unicode="Ỳ"/><glyph d="M621 1190h-140l-221 262h223zM879 1065h157l-450 -1153q-68 -170 -168.5 -233.5t-249.5 -69.5v137q207 10 270 174l25 66l-416 1079h156l334 -889z" glyph-name="ygrave" horiz-adv-x="1081" unicode="ỳ"/><glyph d="M92 637h1045v-127h-1045v127z" glyph-name="endash" horiz-adv-x="1228" unicode="–"/><glyph d="M92 637h1168v-127h-1168v127z" glyph-name="emdash" horiz-adv-x="1351" unicode="—"/><glyph d="M287 1434v-54q-41 -23 -54.5 -62.5t-13.5 -117.5v-61h70v-199h-207v254q0 228 205 240z" glyph-name="quoteleft" horiz-adv-x="360" unicode="‘"/><glyph d="M84 940v55q39 20 52.5 60.5t13.5 118.5v61h-68v199h207v-252q0 -224 -205 -242z" glyph-name="quoteright" horiz-adv-x="360" unicode="’"/><glyph d="M84 -369v54q39 23 52.5 61.5t13.5 118.5v61h-68v199h207v-254q0 -228 -205 -240z" glyph-name="quotesinglbase" horiz-adv-x="360" unicode="‚"/><glyph d="M287 1434v-54q-41 -23 -54.5 -62.5t-13.5 -117.5v-61h70v-199h-207v254q0 228 205 240zM616 1434v-54q-41 -23 -54 -61.5t-13 -118.5v-61h67v-199h-204v254q-1 228 204 240z" glyph-name="quotedblleft" horiz-adv-x="688" unicode="“"/><glyph d="M82 1014v53q41 23 54.5 61.5t13.5 118.5v62h-68v198h205v-254q0 -227 -205 -239zM412 1014v55q41 20 54 59t13 119v62h-67v198h204v-252q1 -225 -204 -241z" glyph-name="quotedblright" horiz-adv-x="688" unicode="”"/><glyph d="M84 -369v54q39 23 52.5 61.5t13.5 118.5v61h-68v199h207v-254q0 -228 -205 -240zM406 -369v54q39 23 52 61.5t13 118.5v61h-68v199h209v-254q1 -228 -206 -240z" glyph-name="quotedblbase" horiz-adv-x="681" unicode="„"/><glyph d="M584 1188v-123h-176v-522h-127v522h-179v123h179v246h127v-246h176z" glyph-name="dagger" horiz-adv-x="686" unicode="†"/><glyph d="M584 999h-176v-565h176v-123h-176v-311h-127v311h-179v123h179v565h-179v123h179v312h127v-312h176v-123z" glyph-name="daggerdbl" horiz-adv-x="686" unicode="‡"/><glyph d="M268 375q-70 0 -118 48t-48 118q0 68 48.5 116t117.5 48q66 0 114 -48.5t48 -115.5q0 -70 -48 -118t-114 -48z" glyph-name="bullet" horiz-adv-x="532" unicode="•"/><glyph d="M608 205h185v-205h-185v205zM1114 205h184v-205h-184v205zM102 205h185v-205h-185v205z" glyph-name="ellipsis" horiz-adv-x="1396" unicode="…"/><glyph d="M354.5 821q-114.5 0 -188.5 83t-74 231q0 145 74 227t188.5 82t188 -82t73.5 -227q0 -147 -73.5 -230.5t-188 -83.5zM260 0l842 1436l121 -2l-840 -1434h-123zM356 928q145 0 146 207q0 201 -146 200q-147 0 -147 -200q0 -207 147 -207zM1126 -10q-115 0 -187.5 83 t-72.5 230q0 145 74 227t188.5 82t188.5 -81.5t74 -227.5q0 -147 -74 -230t-191 -83zM1778 -10q-115 0 -187.5 83t-72.5 230q0 145 73.5 227t188.5 82q117 0 190.5 -81.5t73.5 -227t-74.5 -229.5t-191.5 -84zM1130 98q145 0 146 207q0 201 -146 201q-147 0 -147 -201 q0 -207 147 -207zM1782 98q145 0 145 207q0 201 -145 201q-147 0 -148 -201q1 -207 148 -207z" glyph-name="perthousand" horiz-adv-x="2136" unicode="‰"/><glyph d="M358 805l-184 -193l184 -196v-127l-266 184v275l266 186v-129z" glyph-name="guilsinglleft" horiz-adv-x="450" unicode="‹"/><glyph d="M92 807v127l266 -184v-277l-266 -184v127l184 196z" glyph-name="guilsinglright" horiz-adv-x="450" unicode="›"/><glyph d="M-250 0h-88l895 1434h86z" glyph-name="fraction" horiz-adv-x="307" unicode="⁄"/><glyph d="M1167 354h164q-37 -180 -180 -275t-358 -95q-244 0 -406 136t-203 406h-112v103h100q-2 29 -2 88v47h-98v100h106q35 291 198 438.5t417 147.5q213 0 355 -95t179 -274h-164q-78 217 -368 217q-184 0 -299 -107.5t-146 -326.5h391v-100h-399v-47q0 -59 2 -88h397v-103 h-383q72 -391 437 -391q294 0 372 219z" glyph-name="Euro" horiz-adv-x="1388" unicode="€"/><glyph d="M442 1366h-131v-301h-78v301h-131v68h340v-68zM946 1434v-369h-78v235l-106 -235h-64l-106 235v-235h-78v369h78l139 -293l137 293h78z" glyph-name="trademark" horiz-adv-x="1048" unicode="™"/><glyph d="M477 965q135 0 235.5 -69t135.5 -177q2 117 -13.5 214t-54.5 186t-117.5 140.5t-189.5 51.5q-131 0 -203.5 -63.5t-89.5 -164.5h-153q10 145 125.5 255t320.5 110q147 0 254 -64.5t165 -178t83.5 -244t25.5 -283.5q0 -334 -135 -516t-379 -182q-215 0 -355 132t-140 363 q0 225 139 357.5t346 132.5zM487 117q145 0 239.5 102.5t94.5 259.5q0 164 -95 259.5t-239 95.5q-152 0 -247 -96.5t-95 -262.5q0 -172 94 -265t248 -93z" glyph-name="partialdiff" horiz-adv-x="1103" unicode="∂"/><glyph d="M92 1638h1198v-2027h-149v1884h-899v-1884h-150v2027z" glyph-name="product" horiz-adv-x="1382" unicode="∏"/><glyph d="M1264 1493h-918l483 -868l-483 -869h918v-145h-1172l563 1014l-563 1013h1172v-145z" glyph-name="summation" horiz-adv-x="1355" unicode="∑"/><glyph d="M92 590h750v-115h-750v115z" glyph-name="minus" horiz-adv-x="870" unicode="−"/><glyph d="M1415 1638l-557 -2027h-170l-369 942h-227v166h330l340 -891l500 1810h153z" glyph-name="radical" horiz-adv-x="1507" unicode="√"/><glyph d="M1198 872q147 0 247.5 -95t100.5 -240q0 -150 -100 -246t-248 -96q-203 0 -389 225q-182 -225 -387 -225q-150 0 -250 96t-100 246q0 145 100 240t250 95q201 0 387 -221q188 221 389 221zM426 326q88 0 155.5 53t139.5 158q-72 102 -139.5 154t-155.5 52 q-90 0 -149.5 -59t-59.5 -147t59.5 -149.5t149.5 -61.5zM1192 326q90 0 149.5 61.5t59.5 149.5t-59.5 147t-149.5 59q-88 0 -155.5 -52t-139.5 -154q72 -104 139.5 -157.5t155.5 -53.5z" glyph-name="infinity" horiz-adv-x="1617" unicode="∞"/><glyph d="M207 1108q0 184 87 259t247 75v-139q-94 0 -135 -48.5t-41 -167.5v-1142q0 -184 -87.5 -259t-246.5 -75v137q94 0 135 48t41 169v1143z" glyph-name="integral" horiz-adv-x="602" unicode="∫"/><glyph d="M774 809h80q0 -98 -59.5 -156.5t-151.5 -58.5q-80 0 -181.5 79t-164.5 79q-55 0 -85 -29t-28 -66h-80q0 98 59.5 156.5t151.5 58.5q82 0 182.5 -78.5t164.5 -78.5q55 0 84.5 28.5t27.5 65.5zM774 481h80q0 -98 -59.5 -156.5t-151.5 -58.5q-80 0 -181.5 79t-164.5 79 q-55 0 -85 -28.5t-28 -65.5h-80q0 98 59.5 156.5t151.5 58.5q82 0 182.5 -79t164.5 -79q55 0 84.5 28.5t27.5 65.5z" glyph-name="approxequal" horiz-adv-x="989" unicode="≈"/><glyph d="M842 680h-312l-81 -213h393v-115h-439l-137 -352h-108l137 352h-205v115h250l82 213h-332v115h377l137 354h109l-138 -354h267v-115z" glyph-name="notequal" horiz-adv-x="870" unicode="≠"/><glyph d="M797 461v-139l-703 378v138l703 379v-142l-588 -307zM111 82h749v-115h-749v115z" glyph-name="lessequal" horiz-adv-x="878" unicode="≤"/><glyph d="M94 461l588 307l-588 307v142l703 -379v-138l-703 -378v139zM780 82v-115h-749v115h749z" glyph-name="greaterequal" horiz-adv-x="888" unicode="≥"/><glyph d="M621 1434l317 -717l-317 -717h-162h-49l-318 717l318 717h161h50zM514 129l262 588l-262 588l-260 -588z" glyph-name="lozenge" horiz-adv-x="1030" unicode="◊"/><glyph d="M1298 721v-721h-151v223q-129 -240 -445 -239q-289 0 -456.5 184t-167.5 549q0 367 168 550t456 183q209 0 351.5 -91t181.5 -253h-158q-90 193 -375 192q-215 0 -333.5 -143t-118.5 -438t118.5 -438.5t333.5 -143.5q215 -2 329 96.5t114 294.5v60h-330v135h483z" glyph-name="G.salt" horiz-adv-x="1386"/><glyph d="M1298 721v-721h-151v223q-129 -240 -445 -239q-289 0 -456.5 184t-167.5 549q0 367 168 550t456 183q209 0 351.5 -91t181.5 -253h-158q-90 193 -375 192q-215 0 -333.5 -143t-118.5 -438t118.5 -438.5t333.5 -143.5q215 -2 329 96.5t114 294.5v60h-330v135h483z" glyph-name="G.ss05" horiz-adv-x="1386"/><glyph d="M111 1452h165v-182h-165v182zM115 1065h157v-1065h-157v1065z" glyph-name="i.aalt" horiz-adv-x="385"/><glyph d="M528 1077q250 0 357 -211v199h157v-1065h-157v209q-43 -104 -134.5 -165.5t-222.5 -61.5q-184 0 -322 141t-138 409q0 266 138 405.5t322 139.5zM553 113q143 0 241.5 108.5t98.5 310.5q0 205 -97.5 309.5t-242.5 104.5q-141 0 -235.5 -104.5t-94.5 -309.5 q0 -207 94.5 -313t235.5 -106z" glyph-name="a.salt"/><glyph d="M508 1190l137 262h223l-221 -262h-139zM528 1077q250 0 357 -211v199h157v-1065h-157v209q-43 -104 -134.5 -165.5t-222.5 -61.5q-184 0 -322 141t-138 409q0 266 138 405.5t322 139.5zM553 113q143 0 241.5 108.5t98.5 310.5q0 205 -97.5 309.5t-242.5 104.5 q-141 0 -235.5 -104.5t-94.5 -309.5q0 -207 94.5 -313t235.5 -106z" glyph-name="aacute.salt"/><glyph d="M762 1452h110q0 -113 -73.5 -186.5t-220.5 -73.5q-150 0 -222.5 73.5t-72.5 186.5h108q20 -150 187 -149q168 -1 184 149zM528 1077q250 0 357 -211v199h157v-1065h-157v209q-43 -104 -134.5 -165.5t-222.5 -61.5q-184 0 -322 141t-138 409q0 266 138 405.5t322 139.5z M553 113q143 0 241.5 108.5t98.5 310.5q0 205 -97.5 309.5t-242.5 104.5q-141 0 -235.5 -104.5t-94.5 -309.5q0 -207 94.5 -313t235.5 -106z" glyph-name="abreve.salt"/><glyph d="M770 1436h127l-184 -267h-277l-184 267h127l196 -185zM528 1077q250 0 357 -211v199h157v-1065h-157v209q-43 -104 -134.5 -165.5t-222.5 -61.5q-184 0 -322 141t-138 409q0 266 138 405.5t322 139.5zM553 113q143 0 241.5 108.5t98.5 310.5q0 205 -97.5 309.5 t-242.5 104.5q-141 0 -235.5 -104.5t-94.5 -309.5q0 -207 94.5 -313t235.5 -106z" glyph-name="uni01CE.salt"/><glyph d="M772 1188l-194 182l-197 -182h-127l184 264h277l184 -264h-127zM528 1077q250 0 357 -211v199h157v-1065h-157v209q-43 -104 -134.5 -165.5t-222.5 -61.5q-184 0 -322 141t-138 409q0 266 138 405.5t322 139.5zM553 113q143 0 241.5 108.5t98.5 310.5q0 205 -97.5 309.5 t-242.5 104.5q-141 0 -235.5 -104.5t-94.5 -309.5q0 -207 94.5 -313t235.5 -106z" glyph-name="acircumflex.salt"/><glyph d="M279 1452h165v-182h-165v182zM715 1452h164v-182h-164v182zM528 1077q250 0 357 -211v199h157v-1065h-157v209q-43 -104 -134.5 -165.5t-222.5 -61.5q-184 0 -322 141t-138 409q0 266 138 405.5t322 139.5zM553 113q143 0 241.5 108.5t98.5 310.5q0 205 -97.5 309.5 t-242.5 104.5q-141 0 -235.5 -104.5t-94.5 -309.5q0 -207 94.5 -313t235.5 -106z" glyph-name="adieresis.salt"/><glyph d="M653 1190h-139l-221 262h223zM528 1077q250 0 357 -211v199h157v-1065h-157v209q-43 -104 -134.5 -165.5t-222.5 -61.5q-184 0 -322 141t-138 409q0 266 138 405.5t322 139.5zM553 113q143 0 241.5 108.5t98.5 310.5q0 205 -97.5 309.5t-242.5 104.5 q-141 0 -235.5 -104.5t-94.5 -309.5q0 -207 94.5 -313t235.5 -106z" glyph-name="agrave.salt"/><glyph d="M266 1452h625v-100h-625v100zM528 1077q250 0 357 -211v199h157v-1065h-157v209q-43 -104 -134.5 -165.5t-222.5 -61.5q-184 0 -322 141t-138 409q0 266 138 405.5t322 139.5zM553 113q143 0 241.5 108.5t98.5 310.5q0 205 -97.5 309.5t-242.5 104.5 q-141 0 -235.5 -104.5t-94.5 -309.5q0 -207 94.5 -313t235.5 -106z" glyph-name="amacron.salt"/><glyph d="M885 1065h157v-1065h-38q-121 -41 -186.5 -103.5t-65.5 -134.5q0 -63 51 -86.5t143 -5.5v-78q-45 -20 -102.5 -24t-112.5 7t-93 53t-38 106q0 94 88 165.5t197 100.5v209q-43 -104 -134.5 -165.5t-222.5 -61.5q-184 0 -322 141t-138 409q0 266 138 405.5t322 139.5 q250 0 357 -211v199zM553 113q143 0 241.5 108.5t98.5 310.5q0 205 -97.5 309.5t-242.5 104.5q-141 0 -235.5 -104.5t-94.5 -309.5q0 -207 94.5 -313t235.5 -106z" glyph-name="aogonek.salt"/><glyph d="M580 1190q-76 0 -127.5 50t-51.5 122t51.5 123t127.5 51q72 0 122 -51t50 -123t-50 -122t-122 -50zM575.5 1268q38.5 0 67.5 27.5t29 66.5q0 41 -28 68.5t-69 27.5q-39 0 -66.5 -27.5t-27.5 -68.5q0 -39 28 -66.5t66.5 -27.5zM528 1077q250 0 357 -211v199h157v-1065 h-157v209q-43 -104 -134.5 -165.5t-222.5 -61.5q-184 0 -322 141t-138 409q0 266 138 405.5t322 139.5zM553 113q143 0 241.5 108.5t98.5 310.5q0 205 -97.5 309.5t-242.5 104.5q-141 0 -235.5 -104.5t-94.5 -309.5q0 -207 94.5 -313t235.5 -106z" glyph-name="aring.salt"/><glyph d="M858 1434h76q0 -92 -57.5 -147.5t-145.5 -55.5q-76 0 -172 73.5t-156 73.5q-53 0 -80.5 -26.5t-25.5 -61.5h-78q0 92 57.5 147.5t145.5 55.5q76 0 172 -73.5t156 -73.5q53 0 81.5 26.5t26.5 61.5zM528 1077q250 0 357 -211v199h157v-1065h-157v209 q-43 -104 -134.5 -165.5t-222.5 -61.5q-184 0 -322 141t-138 409q0 266 138 405.5t322 139.5zM553 113q143 0 241.5 108.5t98.5 310.5q0 205 -97.5 309.5t-242.5 104.5q-141 0 -235.5 -104.5t-94.5 -309.5q0 -207 94.5 -313t235.5 -106z" glyph-name="atilde.salt"/><glyph d="M535 256q125 0 227 -33t175 -114.5t73 -204.5q0 -180 -138.5 -267.5t-339.5 -87.5q-190 0 -327 87.5t-137 267.5q0 209 227 289q-90 8 -147.5 49t-57.5 106q0 53 36 90t101 47q-86 92 -86 240q0 164 108.5 258t280.5 94q174 0 283 -96q49 86 174 84v-119q-78 0 -115 -41 q47 -76 48 -180q0 -166 -109 -260t-281 -94q-145 0 -245 65q-66 -14 -66 -78q0 -102 189 -102h127zM530.5 958q-118.5 0 -183 -63.5t-64.5 -169.5q0 -109 64.5 -173.5t183 -64.5t182 64.5t63.5 173.5q0 106 -63.5 169.5t-182 63.5zM532 -332q324 0 324 236q0 233 -324 233 q-141 0 -226 -57t-85 -176q0 -121 85 -178.5t226 -57.5z" glyph-name="g.salt" horiz-adv-x="1091"/><glyph d="M371 -4q-133 -12 -192.5 30t-59.5 169v1239h157v-1241q0 -80 95 -78v-119z" glyph-name="l.salt" horiz-adv-x="415"/><glyph d="M528 1077q250 0 357 -211v199h157v-1065h-157v209q-43 -104 -134.5 -165.5t-222.5 -61.5q-184 0 -322 141t-138 409q0 266 138 405.5t322 139.5zM553 113q143 0 241.5 108.5t98.5 310.5q0 205 -97.5 309.5t-242.5 104.5q-141 0 -235.5 -104.5t-94.5 -309.5 q0 -207 94.5 -313t235.5 -106z" glyph-name="a.ss02"/><glyph d="M508 1190l137 262h223l-221 -262h-139zM528 1077q250 0 357 -211v199h157v-1065h-157v209q-43 -104 -134.5 -165.5t-222.5 -61.5q-184 0 -322 141t-138 409q0 266 138 405.5t322 139.5zM553 113q143 0 241.5 108.5t98.5 310.5q0 205 -97.5 309.5t-242.5 104.5 q-141 0 -235.5 -104.5t-94.5 -309.5q0 -207 94.5 -313t235.5 -106z" glyph-name="aacute.ss02"/><glyph d="M762 1452h110q0 -113 -73.5 -186.5t-220.5 -73.5q-150 0 -222.5 73.5t-72.5 186.5h108q20 -150 187 -149q168 -1 184 149zM528 1077q250 0 357 -211v199h157v-1065h-157v209q-43 -104 -134.5 -165.5t-222.5 -61.5q-184 0 -322 141t-138 409q0 266 138 405.5t322 139.5z M553 113q143 0 241.5 108.5t98.5 310.5q0 205 -97.5 309.5t-242.5 104.5q-141 0 -235.5 -104.5t-94.5 -309.5q0 -207 94.5 -313t235.5 -106z" glyph-name="abreve.ss02"/><glyph d="M770 1436h127l-184 -267h-277l-184 267h127l196 -185zM528 1077q250 0 357 -211v199h157v-1065h-157v209q-43 -104 -134.5 -165.5t-222.5 -61.5q-184 0 -322 141t-138 409q0 266 138 405.5t322 139.5zM553 113q143 0 241.5 108.5t98.5 310.5q0 205 -97.5 309.5 t-242.5 104.5q-141 0 -235.5 -104.5t-94.5 -309.5q0 -207 94.5 -313t235.5 -106z" glyph-name="uni01CE.ss02"/><glyph d="M772 1188l-194 182l-197 -182h-127l184 264h277l184 -264h-127zM528 1077q250 0 357 -211v199h157v-1065h-157v209q-43 -104 -134.5 -165.5t-222.5 -61.5q-184 0 -322 141t-138 409q0 266 138 405.5t322 139.5zM553 113q143 0 241.5 108.5t98.5 310.5q0 205 -97.5 309.5 t-242.5 104.5q-141 0 -235.5 -104.5t-94.5 -309.5q0 -207 94.5 -313t235.5 -106z" glyph-name="acircumflex.ss02"/><glyph d="M279 1452h165v-182h-165v182zM715 1452h164v-182h-164v182zM528 1077q250 0 357 -211v199h157v-1065h-157v209q-43 -104 -134.5 -165.5t-222.5 -61.5q-184 0 -322 141t-138 409q0 266 138 405.5t322 139.5zM553 113q143 0 241.5 108.5t98.5 310.5q0 205 -97.5 309.5 t-242.5 104.5q-141 0 -235.5 -104.5t-94.5 -309.5q0 -207 94.5 -313t235.5 -106z" glyph-name="adieresis.ss02"/><glyph d="M653 1190h-139l-221 262h223zM528 1077q250 0 357 -211v199h157v-1065h-157v209q-43 -104 -134.5 -165.5t-222.5 -61.5q-184 0 -322 141t-138 409q0 266 138 405.5t322 139.5zM553 113q143 0 241.5 108.5t98.5 310.5q0 205 -97.5 309.5t-242.5 104.5 q-141 0 -235.5 -104.5t-94.5 -309.5q0 -207 94.5 -313t235.5 -106z" glyph-name="agrave.ss02"/><glyph d="M266 1452h625v-100h-625v100zM528 1077q250 0 357 -211v199h157v-1065h-157v209q-43 -104 -134.5 -165.5t-222.5 -61.5q-184 0 -322 141t-138 409q0 266 138 405.5t322 139.5zM553 113q143 0 241.5 108.5t98.5 310.5q0 205 -97.5 309.5t-242.5 104.5 q-141 0 -235.5 -104.5t-94.5 -309.5q0 -207 94.5 -313t235.5 -106z" glyph-name="amacron.ss02"/><glyph d="M885 1065h157v-1065h-38q-121 -41 -186.5 -103.5t-65.5 -134.5q0 -63 51 -86.5t143 -5.5v-78q-45 -20 -102.5 -24t-112.5 7t-93 53t-38 106q0 94 88 165.5t197 100.5v209q-43 -104 -134.5 -165.5t-222.5 -61.5q-184 0 -322 141t-138 409q0 266 138 405.5t322 139.5 q250 0 357 -211v199zM553 113q143 0 241.5 108.5t98.5 310.5q0 205 -97.5 309.5t-242.5 104.5q-141 0 -235.5 -104.5t-94.5 -309.5q0 -207 94.5 -313t235.5 -106z" glyph-name="aogonek.ss02"/><glyph d="M580 1190q-76 0 -127.5 50t-51.5 122t51.5 123t127.5 51q72 0 122 -51t50 -123t-50 -122t-122 -50zM575.5 1268q38.5 0 67.5 27.5t29 66.5q0 41 -28 68.5t-69 27.5q-39 0 -66.5 -27.5t-27.5 -68.5q0 -39 28 -66.5t66.5 -27.5zM528 1077q250 0 357 -211v199h157v-1065 h-157v209q-43 -104 -134.5 -165.5t-222.5 -61.5q-184 0 -322 141t-138 409q0 266 138 405.5t322 139.5zM553 113q143 0 241.5 108.5t98.5 310.5q0 205 -97.5 309.5t-242.5 104.5q-141 0 -235.5 -104.5t-94.5 -309.5q0 -207 94.5 -313t235.5 -106z" glyph-name="aring.ss02"/><glyph d="M858 1434h76q0 -92 -57.5 -147.5t-145.5 -55.5q-76 0 -172 73.5t-156 73.5q-53 0 -80.5 -26.5t-25.5 -61.5h-78q0 92 57.5 147.5t145.5 55.5q76 0 172 -73.5t156 -73.5q53 0 81.5 26.5t26.5 61.5zM528 1077q250 0 357 -211v199h157v-1065h-157v209 q-43 -104 -134.5 -165.5t-222.5 -61.5q-184 0 -322 141t-138 409q0 266 138 405.5t322 139.5zM553 113q143 0 241.5 108.5t98.5 310.5q0 205 -97.5 309.5t-242.5 104.5q-141 0 -235.5 -104.5t-94.5 -309.5q0 -207 94.5 -313t235.5 -106z" glyph-name="atilde.ss02"/><glyph d="M535 256q125 0 227 -33t175 -114.5t73 -204.5q0 -180 -138.5 -267.5t-339.5 -87.5q-190 0 -327 87.5t-137 267.5q0 209 227 289q-90 8 -147.5 49t-57.5 106q0 53 36 90t101 47q-86 92 -86 240q0 164 108.5 258t280.5 94q174 0 283 -96q49 86 174 84v-119q-78 0 -115 -41 q47 -76 48 -180q0 -166 -109 -260t-281 -94q-145 0 -245 65q-66 -14 -66 -78q0 -102 189 -102h127zM530.5 958q-118.5 0 -183 -63.5t-64.5 -169.5q0 -109 64.5 -173.5t183 -64.5t182 64.5t63.5 173.5q0 106 -63.5 169.5t-182 63.5zM532 -332q324 0 324 236q0 233 -324 233 q-141 0 -226 -57t-85 -176q0 -121 85 -178.5t226 -57.5z" glyph-name="g.ss03" horiz-adv-x="1091"/><glyph d="M371 -4q-133 -12 -192.5 30t-59.5 169v1239h157v-1241q0 -80 95 -78v-119z" glyph-name="l.ss04" horiz-adv-x="415"/><glyph d="M1096 123q55 0 133 14v-127q-61 -23 -172 -22q-209 0 -209 213v733h-256h-246v-934h-158v934h-151v131h151v104q0 88 24 146.5t67 86.5t88 39t104 11q68 0 152 -18v-125q-82 12 -129 12q-78 0 -113 -34t-35 -120v-102h262h240v266h158v-266h204v-131h-204v-727 q0 -84 90 -84z" glyph-name="f_t.dlig" horiz-adv-x="1296"/><glyph d="M1094 123q53 0 133 14v-127q-61 -23 -172 -22q-98 0 -153.5 47t-55.5 166v733h-154q-362 -12 -426 -311v-623h-157v1065h157v-264q27 113 135.5 186.5t290.5 77.5h154v266h158v-266h204v-131h-204v-727q0 -45 20.5 -64.5t69.5 -19.5z" glyph-name="r_t.dlig" horiz-adv-x="1294"/><glyph d="M278.5 -4q-94.5 0 -155 72.5t-60.5 185.5v27q0 113 60.5 185.5t155 72.5t155 -73t60.5 -185v-27q0 -113 -60.5 -185.5t-155 -72.5zM278.5 473q-61.5 0 -103.5 -52t-42 -140v-27q0 -88 42 -140.5t103.5 -52.5t103.5 52.5t42 140.5v27q0 88 -42 140t-103.5 52z" glyph-name="zero.dnom" horiz-adv-x="575"/><glyph d="M270 535v-535h-67v440q-27 -49 -97 -49v70q29 0 56.5 22.5t40.5 51.5h67z" glyph-name="one.dnom" horiz-adv-x="354"/><glyph d="M92 0v18q0 76 35 131.5t117 108.5q86 53 100 80q14 20 14 51q0 39 -26.5 63.5t-69.5 24.5q-45 0 -71.5 -25.5t-26.5 -74.5v-15h-72v15q0 76 45 121t125 45q78 0 123 -43t45 -111q0 -59 -38 -99t-113 -85q-111 -68 -111 -135v-7h268v-63h-344z" glyph-name="two.dnom" horiz-adv-x="528"/><glyph d="M358 285q47 -8 84 -42t37 -93q0 -68 -52 -113t-142 -45t-141.5 48t-51.5 126h70q2 -113 125 -113t123 98.5t-138 98.5h-22v59h22q111 0 111 88q0 39 -27.5 61.5t-72.5 22.5q-104 0 -105 -106h-69q0 80 47 124t127 44q78 0 123 -40t45 -102q-1 -89 -93 -116z" glyph-name="three.dnom" horiz-adv-x="571"/><glyph d="M467 135h-61v-135h-68v135h-244v55l244 345h68v-345h61v-55zM338 190v256l-180 -256h180z" glyph-name="four.dnom" horiz-adv-x="559"/><glyph d="M266 360q72 0 122 -50t50 -134q0 -86 -52 -136t-138 -50q-84 0 -135.5 49t-51.5 125h68q2 -47 34 -78t85 -31q55 0 87 32t32 89q0 66 -34 95.5t-79 29.5q-76 0 -119 -53h-63l45 287h276v-64h-227l-27 -164q41 53 127 53z" glyph-name="five.dnom" horiz-adv-x="499"/><glyph d="M291 352q74 0 126 -44t52 -132q0 -92 -54.5 -139t-133.5 -47q-88 0 -143.5 65.5t-55.5 202.5q0 127 48 205t151 78q80 0 122.5 -44t49.5 -100h-70q-16 78 -102 78q-55 0 -86 -37t-37 -72.5t-8 -89.5q14 31 51 53.5t90 22.5zM281 55q117 0 116 121q0 59 -32.5 89t-84 30 t-86 -31t-34.5 -84q0 -57 35 -91t86 -34z" glyph-name="six.dnom" horiz-adv-x="550"/><glyph d="M399 535v-64l-209 -471h-67l211 471h-289v64h354z" glyph-name="seven.dnom" horiz-adv-x="460"/><glyph d="M332 291q92 -45 92 -137q0 -70 -54.5 -114t-131.5 -44q-76 0 -130.5 44t-54.5 114q0 94 92 137q-63 45 -63 112q0 55 42 95.5t114 40.5q74 0 115.5 -40t41.5 -96q0 -69 -63 -112zM143 403q0 -37 29 -62.5t66 -25.5q41 0 67.5 25t26.5 63q0 80 -94 80q-45 0 -70 -23.5 t-25 -56.5zM238 51q55 0 86.5 26.5t31.5 76.5q0 104 -118 104q-51 0 -85 -27.5t-34 -76.5q0 -47 34 -75t85 -28z" glyph-name="eight.dnom" horiz-adv-x="477"/><glyph d="M246 178q-74 0 -126 44t-52 132q0 92 54 139.5t134 47.5q88 0 143.5 -65.5t55.5 -203.5q0 -127 -48.5 -204.5t-150.5 -77.5q-80 0 -123 44t-49 99h70q16 -78 102 -78q55 0 86 37t37 73t8 89q-14 -31 -51 -53.5t-90 -22.5zM256 475q-117 0 -117 -121q0 -59 33 -88.5 t84 -29.5t86 30.5t35 83.5q0 57 -35 91t-86 34z" glyph-name="nine.dnom" horiz-adv-x="546"/><glyph d="M317.5 897q-94.5 0 -155 72.5t-60.5 185.5v27q0 113 60.5 185.5t155 72.5t156 -73t61.5 -185v-27q0 -113 -61.5 -185.5t-156 -72.5zM317 1374q-59 0 -102 -52t-43 -140v-27q0 -88 43 -140t102 -52q61 0 104.5 52t43.5 140v27q0 88 -43.5 140t-104.5 52z" glyph-name="zero.numr" horiz-adv-x="595"/><glyph d="M276 1436v-535h-67v440q-29 -49 -96 -49v70q29 0 56.5 22.5t39.5 51.5h67z" glyph-name="one.numr" horiz-adv-x="413"/><glyph d="M92 901v19q0 76 35 131t117 108q86 53 100 80q14 20 14 51q0 39 -26.5 63.5t-69.5 24.5q-45 0 -71.5 -25.5t-26.5 -74.5v-14h-72v14q0 76 45 121t125 45q78 0 123 -43t45 -111q0 -59 -38 -99t-113 -85q-111 -68 -111 -135v-6h268v-64h-344z" glyph-name="two.numr" horiz-adv-x="528"/><glyph d="M358 1186q47 -8 85 -42t38 -93q0 -68 -52 -113t-144 -45q-88 0 -139.5 48t-51.5 126h68q2 -113 125 -113q55 0 90 25t35 74q0 98 -138 98h-22v59h22q109 0 109 88q0 39 -27.5 61.5t-72.5 22.5q-104 0 -105 -106h-67q0 80 46 124t126 44q78 0 124 -40t46 -101 q-1 -90 -95 -117z" glyph-name="three.numr" horiz-adv-x="573"/><glyph d="M467 1036h-61v-135h-68v135h-244v56l244 344h68v-344h61v-56zM338 1092v256l-180 -256h180z" glyph-name="four.numr" horiz-adv-x="559"/><glyph d="M287 1262q72 0 122 -50.5t50 -134.5q0 -86 -52.5 -136t-138.5 -50q-84 0 -135 49t-51 125h68q2 -47 33.5 -78t84.5 -31q55 0 87 32t32 89q0 66 -34 95.5t-79 29.5q-76 0 -118 -53h-64l45 287h277v-64h-228l-26 -164q41 54 127 54z" glyph-name="five.numr" horiz-adv-x="512"/><glyph d="M291 1251q74 0 126 -44t52 -132q0 -92 -54.5 -139t-133.5 -47q-88 0 -143.5 65.5t-55.5 202.5q0 127 48 205t151 78q80 0 122.5 -44t49.5 -100h-70q-16 78 -102 78q-55 0 -86 -37t-37 -72.5t-8 -88.5q14 31 51 53t90 22zM281 954q117 0 116 121q0 59 -32.5 89t-84 30 t-86 -30.5t-34.5 -84.5q0 -57 35 -91t86 -34z" glyph-name="six.numr" horiz-adv-x="550"/><glyph d="M399 1436v-64l-209 -471h-67l211 471h-289v64h354z" glyph-name="seven.numr" horiz-adv-x="460"/><glyph d="M332 1192q92 -45 92 -137q0 -70 -54.5 -114t-131.5 -44q-76 0 -130.5 44t-54.5 114q0 94 92 137q-63 45 -63 113q0 55 42 95t114 40q74 0 115.5 -40t41.5 -95q0 -70 -63 -113zM143 1305q0 -37 29 -62.5t66 -25.5q41 0 67.5 24.5t26.5 63.5q0 80 -94 79q-45 0 -70 -23 t-25 -56zM238 952q55 0 86.5 27t31.5 76q0 104 -118 104q-51 0 -85 -27.5t-34 -76.5q0 -47 34 -75t85 -28z" glyph-name="eight.numr" horiz-adv-x="477"/><glyph d="M262 1079q-76 0 -128 44t-52 132q0 92 54 139.5t134 47.5q88 0 143.5 -65.5t55.5 -202.5q0 -283 -197 -283q-80 0 -124 44t-50 99h70q16 -78 104 -78q125 0 131 199q-41 -76 -141 -76zM270 1376q-117 0 -116 -121q0 -57 33.5 -87.5t82.5 -30.5q51 0 86 30.5t35 83.5 q0 57 -34 91t-87 34z" glyph-name="nine.numr" horiz-adv-x="536"/></font>
</defs>
</svg>
